<?xml version="1.0" standalone="yes"?>

<svg version="1.1" viewBox="0.0 0.0 925.9160104986877 349.5538057742782" fill="none" stroke="none" stroke-linecap="square" stroke-miterlimit="10" xmlns="http://www.w3.org/2000/svg" xmlns:xlink="http://www.w3.org/1999/xlink"><clipPath id="p.0"><path d="m0 0l925.916 0l0 349.5538l-925.916 0l0 -349.5538z" clip-rule="nonzero"></path></clipPath><g clip-path="url(#p.0)"><path fill="#000000" fill-opacity="0.0" d="m0 0l925.916 0l0 349.5538l-925.916 0z" fill-rule="nonzero"></path><path fill="#6fa8dc" d="m5.24815 45.42219l0 0c0 -22.083134 17.901917 -39.98505 39.98505 -39.98505l159.93541 0l0 0c10.604691 0 20.77504 4.2126985 28.273697 11.711351c7.498642 7.4986515 11.7113495 17.669004 11.7113495 28.273699l0 257.6047c0 22.08313 -17.901917 39.985046 -39.985046 39.985046l-159.93541 0c-22.083134 0 -39.98505 -17.901917 -39.98505 -39.985046z" fill-rule="nonzero"></path><path stroke="#000000" stroke-width="1.0" stroke-linejoin="round" stroke-linecap="butt" d="m5.24815 45.42219l0 0c0 -22.083134 17.901917 -39.98505 39.98505 -39.98505l159.93541 0l0 0c10.604691 0 20.77504 4.2126985 28.273697 11.711351c7.498642 7.4986515 11.7113495 17.669004 11.7113495 28.273699l0 257.6047c0 22.08313 -17.901917 39.985046 -39.985046 39.985046l-159.93541 0c-22.083134 0 -39.98505 -17.901917 -39.98505 -39.985046z" fill-rule="nonzero"></path><path fill="#1c4587" d="m22.363634 41.93611l0 0c0 -7.7669334 6.296343 -14.063274 14.063272 -14.063274l178.04669 0c3.7298126 0 7.3068542 1.4816608 9.944229 4.1190376c2.6373749 2.6373749 4.119034 6.214424 4.119034 9.944237l0 56.251404c0 7.7669296 -6.296341 14.063271 -14.063263 14.063271l-178.04669 0l0 0c-7.7669296 0 -14.063272 -6.296341 -14.063272 -14.063271z" fill-rule="nonzero"></path><path stroke="#000000" stroke-width="1.0" stroke-linejoin="round" stroke-linecap="butt" d="m22.363634 41.93611l0 0c0 -7.7669334 6.296343 -14.063274 14.063272 -14.063274l178.04669 0c3.7298126 0 7.3068542 1.4816608 9.944229 4.1190376c2.6373749 2.6373749 4.119034 6.214424 4.119034 9.944237l0 56.251404c0 7.7669296 -6.296341 14.063271 -14.063263 14.063271l-178.04669 0l0 0c-7.7669296 0 -14.063272 -6.296341 -14.063272 -14.063271z" fill-rule="nonzero"></path><path fill="#ffffff" d="m59.226715 66.67993q0.40625 -0.265625 1.234375 -0.546875q0.828125 -0.296875 1.90625 -0.296875q1.34375 0 2.390625 0.484375q1.046875 0.46875 1.765625 1.34375q0.71875 0.859375 1.078125 2.0625q0.375 1.1875 0.375 2.640625q0 1.5 -0.4375 2.71875q-0.4375 1.21875 -1.265625 2.0625q-0.8125 0.828125 -1.96875 1.28125q-1.140625 0.453125 -2.59375 0.453125q-1.546875 0 -2.75 -0.21875q-1.203125 -0.203125 -1.96875 -0.421875l0 -17.874996l2.234375 -0.390625l0 6.703121zm0 9.984375q0.328125 0.09375 0.9375 0.171875q0.625 0.078125 1.53125 0.078125q1.796875 0 2.875 -1.1875q1.078125 -1.1875 1.078125 -3.359375q0 -0.96875 -0.1875 -1.796875q-0.1875 -0.84375 -0.625 -1.453125q-0.421875 -0.625 -1.109375 -0.96875q-0.6875 -0.34375 -1.640625 -0.34375q-0.921875 0 -1.6875 0.3125q-0.765625 0.3125 -1.171875 0.640625l0 7.90625zm16.12033 0.328125q0.796875 0 1.40625 -0.03125q0.609375 -0.046875 1.015625 -0.140625l0 -3.71875q-0.234375 -0.109375 -0.78125 -0.1875q-0.53125 -0.09375 -1.296875 -0.09375q-0.515625 0 -1.078125 0.078125q-0.5625 0.0625 -1.03125 0.296875q-0.46875 0.21875 -0.78125 0.625q-0.3125 0.390625 -0.3125 1.03125q0 1.203125 0.765625 1.671875q0.78125 0.46875 2.09375 0.46875zm-0.1875 -11.1875q1.34375 0 2.265625 0.359375q0.921875 0.34375 1.484375 0.984375q0.5625 0.625 0.796875 1.5q0.25 0.875 0.25 1.9375l0 7.796875q-0.28125 0.046875 -0.796875 0.140625q-0.515625 0.078125 -1.171875 0.140625q-0.640625 0.078125 -1.40625 0.140625q-0.75 0.0625 -1.5 0.0625q-1.046875 0 -1.9375 -0.21875q-0.890625 -0.21875 -1.546875 -0.6875q-0.640625 -0.46875 -1.0 -1.234375q-0.359375 -0.765625 -0.359375 -1.84375q0 -1.03125 0.421875 -1.765625q0.421875 -0.75 1.140625 -1.203125q0.71875 -0.46875 1.671875 -0.671875q0.96875 -0.21875 2.015625 -0.21875q0.34375 0 0.703125 0.03125q0.359375 0.03125 0.671875 0.09375q0.328125 0.0625 0.5625 0.109375q0.25 0.046875 0.34375 0.078125l0 -0.625q0 -0.5625 -0.125 -1.09375q-0.109375 -0.546875 -0.421875 -0.96875q-0.3125 -0.421875 -0.859375 -0.671875q-0.53125 -0.25 -1.390625 -0.25q-1.109375 0 -1.9375 0.15625q-0.828125 0.15625 -1.234375 0.328125l-0.265625 -1.84375q0.4375 -0.203125 1.4375 -0.375q1.015625 -0.1875 2.1875 -0.1875zm13.918594 13.078125q-1.515625 0 -2.65625 -0.46875q-1.140625 -0.484375 -1.921875 -1.34375q-0.78125 -0.875 -1.171875 -2.0625q-0.375 -1.1875 -0.375 -2.625q0 -1.4375 0.421875 -2.640625q0.421875 -1.203125 1.1875 -2.078125q0.765625 -0.875 1.875 -1.359375q1.125 -0.5 2.5 -0.5q0.84375 0 1.671875 0.15625q0.84375 0.140625 1.609375 0.453125l-0.5 1.890625q-0.5 -0.234375 -1.171875 -0.375q-0.65625 -0.15625 -1.390625 -0.15625q-1.875 0 -2.875 1.1875q-1.0 1.171875 -1.0 3.421875q0 1.015625 0.234375 1.859375q0.234375 0.828125 0.71875 1.4375q0.484375 0.59375 1.25 0.921875q0.78125 0.3125 1.875 0.3125q0.890625 0 1.609375 -0.15625q0.71875 -0.171875 1.140625 -0.359375l0.3125 1.859375q-0.203125 0.125 -0.5625 0.234375q-0.359375 0.109375 -0.8125 0.1875q-0.453125 0.09375 -0.96875 0.140625q-0.515625 0.0625 -1.0 0.0625zm10.253723 -7.140625q0.71875 0.546875 1.515625 1.359375q0.8125 0.8125 1.578125 1.765625q0.78125 0.953125 1.484375 1.921875q0.703125 0.96875 1.171875 1.8125l-2.609375 0q-0.5 -0.84375 -1.171875 -1.71875q-0.65625 -0.875 -1.375 -1.671875q-0.71875 -0.8125 -1.46875 -1.484375q-0.734375 -0.671875 -1.40625 -1.125l0 6.0l-2.234375 0l0 -18.234371l2.234375 -0.390625l0 11.374996q0.578125 -0.578125 1.265625 -1.265625q0.703125 -0.703125 1.375 -1.421875q0.671875 -0.71875 1.265625 -1.375q0.59375 -0.65625 1.03125 -1.171875l2.625 0q-0.5625 0.609375 -1.21875 1.328125q-0.640625 0.71875 -1.34375 1.453125q-0.6875 0.734375 -1.390625 1.46875q-0.703125 0.71875 -1.328125 1.375zm7.3092194 0.640625q0 -1.65625 0.484375 -2.890625q0.484375 -1.234375 1.265625 -2.046875q0.796875 -0.8125 1.828125 -1.21875q1.03125 -0.421875 2.109375 -0.421875q2.53125 0 3.875 1.578125q1.34375 1.578125 1.34375 4.78125q0 0.15625 0 0.390625q0 0.21875 -0.03125 0.40625l-8.546875 0q0.15625 1.9375 1.125 2.953125q0.984375 1.0 3.078125 1.0q1.171875 0 1.96875 -0.203125q0.8125 -0.203125 1.21875 -0.390625l0.3125 1.875q-0.40625 0.21875 -1.421875 0.453125q-1.015625 0.234375 -2.3125 0.234375q-1.640625 0 -2.828125 -0.484375q-1.1875 -0.5 -1.953125 -1.359375q-0.765625 -0.859375 -1.140625 -2.046875q-0.375 -1.1875 -0.375 -2.609375zm8.578125 -1.21875q0.015625 -1.515625 -0.765625 -2.484375q-0.78125 -0.96875 -2.140625 -0.96875q-0.765625 0 -1.359375 0.296875q-0.59375 0.296875 -1.0 0.78125q-0.40625 0.46875 -0.640625 1.09375q-0.21875 0.625 -0.296875 1.28125l6.203125 0zm5.5409546 -4.6875q0.765625 -0.1875 2.03125 -0.40625q1.28125 -0.21875 2.9375 -0.21875q1.484375 0 2.46875 0.421875q0.984375 0.421875 1.5625 1.1875q0.59375 0.75 0.828125 1.8125q0.25 1.046875 0.25 2.3125l0 7.015625l-2.234375 0l0 -6.53125q0 -1.15625 -0.15625 -1.96875q-0.15625 -0.8125 -0.515625 -1.3125q-0.359375 -0.5 -0.96875 -0.734375q-0.59375 -0.234375 -1.484375 -0.234375q-0.359375 0 -0.75 0.03125q-0.375 0.015625 -0.71875 0.0625q-0.34375 0.03125 -0.625 0.078125q-0.28125 0.046875 -0.390625 0.078125l0 10.53125l-2.234375 0l0 -12.125zm21.838455 2.28125q-0.40625 -0.328125 -1.171875 -0.640625q-0.765625 -0.3125 -1.6875 -0.3125q-0.953125 0 -1.640625 0.34375q-0.6875 0.34375 -1.125 0.96875q-0.421875 0.609375 -0.625 1.453125q-0.1875 0.828125 -0.1875 1.796875q0 2.171875 1.078125 3.359375q1.09375 1.1875 2.890625 1.1875q0.90625 0 1.515625 -0.078125q0.609375 -0.078125 0.953125 -0.171875l0 -7.90625zm0 -8.390621l2.234375 -0.390625l0 18.265621q-0.765625 0.21875 -1.96875 0.421875q-1.203125 0.21875 -2.765625 0.21875q-1.4375 0 -2.59375 -0.453125q-1.140625 -0.453125 -1.96875 -1.28125q-0.8125 -0.84375 -1.265625 -2.0625q-0.4375 -1.21875 -0.4375 -2.71875q0 -1.453125 0.375 -2.640625q0.375 -1.203125 1.09375 -2.0625q0.71875 -0.875 1.765625 -1.34375q1.046875 -0.484375 2.390625 -0.484375q1.078125 0 1.90625 0.296875q0.828125 0.28125 1.234375 0.546875l0 -6.312496zm8.714081 16.937496q0 0.65625 -0.4375 1.140625q-0.421875 0.46875 -1.171875 0.46875q-0.75 0 -1.1875 -0.46875q-0.421875 -0.484375 -0.421875 -1.140625q0 -0.640625 0.421875 -1.125q0.4375 -0.484375 1.1875 -0.484375q0.75 0 1.171875 0.484375q0.4375 0.484375 0.4375 1.125zm1.2164764 5.78125q-0.28125 0 -0.734375 -0.078125q-0.453125 -0.0625 -0.765625 -0.1875l0.28125 -1.8125q0.234375 0.0625 0.546875 0.109375q0.3125 0.046875 0.578125 0.046875q1.15625 0 1.640625 -0.703125q0.49998474 -0.703125 0.49998474 -2.078125l0 -12.265625l2.234375 0l0 12.25q0 2.390625 -1.09375 3.546875q-1.09375 1.171875 -3.1874847 1.171875zm3.1562347 -19.218746q-0.609375 0 -1.03125 -0.390625q-0.42185974 -0.40625 -0.42185974 -1.078125q0 -0.671875 0.42185974 -1.0625q0.421875 -0.390625 1.03125 -0.390625q0.59375 0 1.015625 0.390625q0.421875 0.390625 0.421875 1.0625q0 0.671875 -0.421875 1.078125q-0.421875 0.390625 -1.015625 0.390625zm9.181366 13.124996q0.796875 0 1.40625 -0.03125q0.609375 -0.046875 1.015625 -0.140625l0 -3.71875q-0.234375 -0.109375 -0.78125 -0.1875q-0.53125 -0.09375 -1.296875 -0.09375q-0.515625 0 -1.078125 0.078125q-0.5625 0.0625 -1.03125 0.296875q-0.46875 0.21875 -0.78125 0.625q-0.3125 0.390625 -0.3125 1.03125q0 1.203125 0.765625 1.671875q0.78125 0.46875 2.09375 0.46875zm-0.1875 -11.1875q1.34375 0 2.265625 0.359375q0.921875 0.34375 1.484375 0.984375q0.5625 0.625 0.796875 1.5q0.25 0.875 0.25 1.9375l0 7.796875q-0.28125 0.046875 -0.796875 0.140625q-0.515625 0.078125 -1.171875 0.140625q-0.640625 0.078125 -1.40625 0.140625q-0.75 0.0625 -1.5 0.0625q-1.046875 0 -1.9375 -0.21875q-0.890625 -0.21875 -1.546875 -0.6875q-0.640625 -0.46875 -1.0 -1.234375q-0.359375 -0.765625 -0.359375 -1.84375q0 -1.03125 0.421875 -1.765625q0.421875 -0.75 1.140625 -1.203125q0.71875 -0.46875 1.671875 -0.671875q0.96875 -0.21875 2.015625 -0.21875q0.34375 0 0.703125 0.03125q0.359375 0.03125 0.671875 0.09375q0.328125 0.0625 0.5625 0.109375q0.25 0.046875 0.34375 0.078125l0 -0.625q0 -0.5625 -0.125 -1.09375q-0.109375 -0.546875 -0.421875 -0.96875q-0.3125 -0.421875 -0.859375 -0.671875q-0.53125 -0.25 -1.390625 -0.25q-1.109375 0 -1.9375 0.15625q-0.828125 0.15625 -1.234375 0.328125l-0.265625 -1.84375q0.4375 -0.203125 1.4375 -0.375q1.015625 -0.1875 2.1875 -0.1875zm18.23108 0.3125q-0.921875 3.515625 -2.1875 6.734375q-1.265625 3.203125 -2.4375 5.75l-2.015625 0q-1.171875 -2.546875 -2.4375 -5.75q-1.265625 -3.21875 -2.1875 -6.734375l2.390625 0q0.296875 1.1875 0.6875 2.515625q0.390625 1.328125 0.828125 2.640625q0.453125 1.296875 0.90625 2.53125q0.453125 1.21875 0.875 2.1875q0.40625 -0.96875 0.859375 -2.1875q0.453125 -1.234375 0.890625 -2.53125q0.453125 -1.3125 0.84375 -2.640625q0.40625 -1.328125 0.6875 -2.515625l2.296875 0zm6.5323486 10.875q0.796875 0 1.40625 -0.03125q0.609375 -0.046875 1.015625 -0.140625l0 -3.71875q-0.234375 -0.109375 -0.78125 -0.1875q-0.53125 -0.09375 -1.296875 -0.09375q-0.515625 0 -1.078125 0.078125q-0.5625 0.0625 -1.03125 0.296875q-0.46875 0.21875 -0.78125 0.625q-0.3125 0.390625 -0.3125 1.03125q0 1.203125 0.765625 1.671875q0.78125 0.46875 2.09375 0.46875zm-0.1875 -11.1875q1.34375 0 2.265625 0.359375q0.921875 0.34375 1.484375 0.984375q0.5625 0.625 0.796875 1.5q0.25 0.875 0.25 1.9375l0 7.796875q-0.28125 0.046875 -0.796875 0.140625q-0.515625 0.078125 -1.171875 0.140625q-0.640625 0.078125 -1.40625 0.140625q-0.75 0.0625 -1.5 0.0625q-1.046875 0 -1.9375 -0.21875q-0.890625 -0.21875 -1.546875 -0.6875q-0.640625 -0.46875 -1.0 -1.234375q-0.359375 -0.765625 -0.359375 -1.84375q0 -1.03125 0.421875 -1.765625q0.421875 -0.75 1.140625 -1.203125q0.71875 -0.46875 1.671875 -0.671875q0.96875 -0.21875 2.015625 -0.21875q0.34375 0 0.703125 0.03125q0.359375 0.03125 0.671875 0.09375q0.328125 0.0625 0.5625 0.109375q0.25 0.046875 0.34375 0.078125l0 -0.625q0 -0.5625 -0.125 -1.09375q-0.109375 -0.546875 -0.421875 -0.96875q-0.3125 -0.421875 -0.859375 -0.671875q-0.53125 -0.25 -1.390625 -0.25q-1.109375 0 -1.9375 0.15625q-0.828125 0.15625 -1.234375 0.328125l-0.265625 -1.84375q0.4375 -0.203125 1.4375 -0.375q1.015625 -0.1875 2.1875 -0.1875z" fill-rule="nonzero"></path><path fill="#1c4587" d="m22.363634 142.32718l0 0c0 -7.766922 6.296343 -14.063263 14.063272 -14.063263l178.04669 0c3.7298126 0 7.3068542 1.4816589 9.944229 4.119034c2.6373749 2.6373749 4.119034 6.2144165 4.119034 9.944229l0 56.251404c0 7.7669373 -6.296341 14.063278 -14.063263 14.063278l-178.04669 0l0 0c-7.7669296 0 -14.063272 -6.296341 -14.063272 -14.063278z" fill-rule="nonzero"></path><path stroke="#000000" stroke-width="1.0" stroke-linejoin="round" stroke-linecap="butt" d="m22.363634 142.32718l0 0c0 -7.766922 6.296343 -14.063263 14.063272 -14.063263l178.04669 0c3.7298126 0 7.3068542 1.4816589 9.944229 4.119034c2.6373749 2.6373749 4.119034 6.2144165 4.119034 9.944229l0 56.251404c0 7.7669373 -6.296341 14.063278 -14.063263 14.063278l-178.04669 0l0 0c-7.7669296 0 -14.063272 -6.296341 -14.063272 -14.063278z" fill-rule="nonzero"></path><path fill="#ffffff" d="m74.69229 166.86789q0.765625 -0.1875 2.015625 -0.40625q1.265625 -0.21875 2.921875 -0.21875q1.203125 0 2.015625 0.328125q0.828125 0.328125 1.375 0.953125q0.171875 -0.125 0.53125 -0.34375q0.359375 -0.21875 0.875 -0.421875q0.53125 -0.203125 1.171875 -0.359375q0.65625 -0.15625 1.40625 -0.15625q1.4375 0 2.34375 0.421875q0.921875 0.421875 1.4375 1.1875q0.515625 0.765625 0.6875 1.828125q0.1875 1.0625 0.1875 2.296875l0 7.015625l-2.234375 0l0 -6.53125q0 -1.09375 -0.109375 -1.890625q-0.109375 -0.796875 -0.40625 -1.3125q-0.296875 -0.53125 -0.8125 -0.78125q-0.515625 -0.265625 -1.34375 -0.265625q-1.125 0 -1.859375 0.3125q-0.71875 0.296875 -0.984375 0.53125q0.1875 0.625 0.28125 1.375q0.09375 0.734375 0.09375 1.546875l0 7.015625l-2.234375 0l0 -6.53125q0 -1.09375 -0.125 -1.890625q-0.109375 -0.796875 -0.40625 -1.3125q-0.296875 -0.53125 -0.8125 -0.78125q-0.515625 -0.265625 -1.3125 -0.265625q-0.34375 0 -0.734375 0.03125q-0.375 0.015625 -0.71875 0.0625q-0.34375 0.03125 -0.640625 0.078125q-0.28125 0.046875 -0.375 0.078125l0 10.53125l-2.234375 0l0 -12.125zm19.19519 14.453125q0.265625 0.125 0.6875 0.21875q0.421875 0.109375 0.828125 0.109375q1.3125 0 2.0625 -0.59375q0.75 -0.578125 1.34375 -1.890625q-1.515625 -2.890625 -2.828125 -6.109375q-1.296875 -3.234375 -2.15625 -6.546875l2.390625 0q0.265625 1.078125 0.640625 2.328125q0.375 1.25 0.828125 2.578125q0.453125 1.3125 0.984375 2.640625q0.53125 1.3125 1.109375 2.53125q0.90625 -2.515625 1.578125 -4.984375q0.671875 -2.46875 1.265625 -5.09375l2.3125 0q-0.875 3.53125 -1.9375 6.78125q-1.046875 3.25 -2.265625 6.09375q-0.484375 1.078125 -1.0 1.859375q-0.515625 0.78125 -1.140625 1.28125q-0.625 0.5 -1.40625 0.734375q-0.78125 0.25 -1.765625 0.25q-0.25 0 -0.546875 -0.046875q-0.28125 -0.03125 -0.5625 -0.09375q-0.28125 -0.0625 -0.515625 -0.140625q-0.21875 -0.0625 -0.3125 -0.109375l0.40625 -1.796875zm17.615463 -3.9375q0.796875 0 1.40625 -0.03125q0.609375 -0.046875 1.015625 -0.140625l0 -3.71875q-0.234375 -0.109375 -0.78125 -0.1875q-0.53125 -0.09375 -1.296875 -0.09375q-0.515625 0 -1.078125 0.078125q-0.5625 0.0625 -1.03125 0.296875q-0.46875 0.21875 -0.78125 0.625q-0.3125 0.390625 -0.3125 1.03125q0 1.203125 0.765625 1.671875q0.78125 0.46875 2.09375 0.46875zm-0.1875 -11.1875q1.34375 0 2.265625 0.359375q0.921875 0.34375 1.484375 0.984375q0.5625 0.625 0.796875 1.5q0.25 0.875 0.25 1.9375l0 7.796875q-0.28125 0.046875 -0.796875 0.140625q-0.515625 0.078125 -1.171875 0.140625q-0.640625 0.078125 -1.40625 0.140625q-0.75 0.0625 -1.5 0.0625q-1.046875 0 -1.9375 -0.21875q-0.890625 -0.21875 -1.546875 -0.6875q-0.640625 -0.46875 -1.0 -1.234375q-0.359375 -0.765625 -0.359375 -1.84375q0 -1.03125 0.421875 -1.765625q0.421875 -0.75 1.140625 -1.203125q0.71875 -0.46875 1.671875 -0.671875q0.96875 -0.21875 2.015625 -0.21875q0.34375 0 0.703125 0.03125q0.359375 0.03125 0.671875 0.09375q0.328125 0.0625 0.5625 0.109375q0.25 0.046875 0.34375 0.078125l0 -0.625q0 -0.5625 -0.125 -1.09375q-0.109375 -0.546875 -0.421875 -0.96875q-0.3125 -0.421875 -0.859375 -0.671875q-0.53125 -0.25 -1.390625 -0.25q-1.109375 0 -1.9375 0.15625q-0.828125 0.15625 -1.234375 0.328125l-0.265625 -1.84375q0.4375 -0.203125 1.4375 -0.375q1.015625 -0.1875 2.1875 -0.1875zm17.15297 6.578125q0 -2.1875 -1.078125 -3.359375q-1.078125 -1.171875 -2.875 -1.171875q-1.015625 0 -1.578125 0.078125q-0.5625 0.0625 -0.890625 0.15625l0 7.875q0.40625 0.34375 1.171875 0.65625q0.765625 0.296875 1.6875 0.296875q0.953125 0 1.640625 -0.34375q0.6875 -0.34375 1.109375 -0.953125q0.4375 -0.609375 0.625 -1.4375q0.1875 -0.828125 0.1875 -1.796875zm2.328125 0q0 1.421875 -0.375 2.625q-0.359375 1.1875 -1.078125 2.0625q-0.71875 0.859375 -1.765625 1.34375q-1.046875 0.46875 -2.390625 0.46875q-1.078125 0 -1.90625 -0.28125q-0.828125 -0.28125 -1.234375 -0.546875l0 4.984375l-2.234375 0l0 -16.53125q0.796875 -0.1875 1.984375 -0.421875q1.1875 -0.234375 2.734375 -0.234375q1.453125 0 2.59375 0.46875q1.15625 0.453125 1.96875 1.296875q0.828125 0.828125 1.265625 2.046875q0.4375 1.203125 0.4375 2.71875zm11.807831 0q0 -2.1875 -1.078125 -3.359375q-1.078125 -1.171875 -2.875 -1.171875q-1.015625 0 -1.578125 0.078125q-0.5625 0.0625 -0.890625 0.15625l0 7.875q0.40625 0.34375 1.171875 0.65625q0.765625 0.296875 1.6875 0.296875q0.953125 0 1.640625 -0.34375q0.6875 -0.34375 1.109375 -0.953125q0.4375 -0.609375 0.625 -1.4375q0.1875 -0.828125 0.1875 -1.796875zm2.328125 0q0 1.421875 -0.375 2.625q-0.359375 1.1875 -1.078125 2.0625q-0.71875 0.859375 -1.765625 1.34375q-1.046875 0.46875 -2.390625 0.46875q-1.078125 0 -1.90625 -0.28125q-0.828125 -0.28125 -1.234375 -0.546875l0 4.984375l-2.234375 0l0 -16.53125q0.796875 -0.1875 1.984375 -0.421875q1.1875 -0.234375 2.734375 -0.234375q1.453125 0 2.59375 0.46875q1.15625 0.453125 1.96875 1.296875q0.828125 0.828125 1.265625 2.046875q0.4375 1.203125 0.4375 2.71875zm5.792206 4.921875q0 0.65625 -0.4375 1.140625q-0.421875 0.46875 -1.171875 0.46875q-0.75 0 -1.1875 -0.46875q-0.421875 -0.484375 -0.421875 -1.140625q0 -0.640625 0.421875 -1.125q0.4375 -0.484375 1.1875 -0.484375q0.75 0 1.171875 0.484375q0.4375 0.484375 0.4375 1.125zm11.919601 -4.921875q0 -2.1875 -1.078125 -3.359375q-1.078125 -1.171875 -2.875 -1.171875q-1.015625 0 -1.578125 0.078125q-0.5625 0.0625 -0.890625 0.15625l0 7.875q0.40625 0.34375 1.171875 0.65625q0.765625 0.296875 1.6875 0.296875q0.953125 0 1.640625 -0.34375q0.6875 -0.34375 1.109375 -0.953125q0.4375 -0.609375 0.625 -1.4375q0.1875 -0.828125 0.1875 -1.796875zm2.328125 0q0 1.421875 -0.375 2.625q-0.359375 1.1875 -1.078125 2.0625q-0.71875 0.859375 -1.765625 1.34375q-1.046875 0.46875 -2.390625 0.46875q-1.078125 0 -1.90625 -0.28125q-0.828125 -0.28125 -1.234375 -0.546875l0 4.984375l-2.234375 0l0 -16.53125q0.796875 -0.1875 1.984375 -0.421875q1.1875 -0.234375 2.734375 -0.234375q1.453125 0 2.59375 0.46875q1.15625 0.453125 1.96875 1.296875q0.828125 0.828125 1.265625 2.046875q0.4375 1.203125 0.4375 2.71875zm1.6828308 8.546875q0.265625 0.125 0.6875 0.21875q0.421875 0.109375 0.828125 0.109375q1.3125 0 2.0625 -0.59375q0.75 -0.578125 1.34375 -1.890625q-1.515625 -2.890625 -2.828125 -6.109375q-1.296875 -3.234375 -2.15625 -6.546875l2.390625 0q0.265625 1.078125 0.640625 2.328125q0.375 1.25 0.828125 2.578125q0.453125 1.3125 0.984375 2.640625q0.53125 1.3125 1.109375 2.53125q0.90625 -2.515625 1.578125 -4.984375q0.671875 -2.46875 1.265625 -5.09375l2.3125 0q-0.875 3.53125 -1.9375 6.78125q-1.046875 3.25 -2.265625 6.09375q-0.484375 1.078125 -1.0 1.859375q-0.515625 0.78125 -1.140625 1.28125q-0.625 0.5 -1.40625 0.734375q-0.78125 0.25 -1.765625 0.25q-0.25 0 -0.546875 -0.046875q-0.28125 -0.03125 -0.5625 -0.09375q-0.28125 -0.0625 -0.515625 -0.140625q-0.21875 -0.0625 -0.3125 -0.109375l0.40625 -1.796875z" fill-rule="nonzero"></path><path fill="#1c4587" d="m22.363634 242.71828l0 0c0 -7.7669373 6.296343 -14.063278 14.063272 -14.063278l178.04669 0c3.7298126 0 7.3068542 1.4816589 9.944229 4.119034c2.6373749 2.6373749 4.119034 6.214432 4.119034 9.944244l0 56.25139c0 7.7669373 -6.296341 14.063293 -14.063263 14.063293l-178.04669 0l0 0c-7.7669296 0 -14.063272 -6.296356 -14.063272 -14.063293z" fill-rule="nonzero"></path><path stroke="#000000" stroke-width="1.0" stroke-linejoin="round" stroke-linecap="butt" d="m22.363634 242.71828l0 0c0 -7.7669373 6.296343 -14.063278 14.063272 -14.063278l178.04669 0c3.7298126 0 7.3068542 1.4816589 9.944229 4.119034c2.6373749 2.6373749 4.119034 6.214432 4.119034 9.944244l0 56.25139c0 7.7669373 -6.296341 14.063293 -14.063263 14.063293l-178.04669 0l0 0c-7.7669296 0 -14.063272 -6.296356 -14.063272 -14.063293z" fill-rule="nonzero"></path><path fill="#ffffff" d="m73.23995 273.1496q0 1.484375 -0.4375 2.6875q-0.421875 1.1875 -1.203125 2.0625q-0.78125 0.859375 -1.859375 1.328125q-1.078125 0.46875 -2.359375 0.46875q-1.265625 0 -2.359375 -0.46875q-1.078125 -0.46875 -1.859375 -1.328125q-0.765625 -0.875 -1.203125 -2.0625q-0.4375 -1.203125 -0.4375 -2.6875q0 -1.46875 0.4375 -2.671875q0.4375 -1.21875 1.203125 -2.078125q0.78125 -0.875 1.859375 -1.34375q1.09375 -0.46875 2.359375 -0.46875q1.28125 0 2.359375 0.46875q1.078125 0.46875 1.859375 1.34375q0.78125 0.859375 1.203125 2.078125q0.4375 1.203125 0.4375 2.671875zm-2.328125 0q0 -2.125 -0.953125 -3.359375q-0.9375 -1.234375 -2.578125 -1.234375q-1.625 0 -2.578125 1.234375q-0.953125 1.234375 -0.953125 3.359375q0 2.109375 0.953125 3.34375q0.953125 1.234375 2.578125 1.234375q1.640625 0 2.578125 -1.234375q0.953125 -1.234375 0.953125 -3.34375zm7.566208 -6.25l4.71875 0l0 1.875l-4.71875 0l0 5.765625q0 0.9375 0.140625 1.546875q0.140625 0.609375 0.421875 0.96875q0.296875 0.34375 0.71875 0.484375q0.4375 0.140625 1.015625 0.140625q1.0 0 1.609375 -0.21875q0.625 -0.234375 0.859375 -0.328125l0.4375 1.84375q-0.34375 0.171875 -1.1875 0.421875q-0.828125 0.25 -1.90625 0.25q-1.28125 0 -2.109375 -0.328125q-0.828125 -0.328125 -1.328125 -0.96875q-0.5 -0.65625 -0.703125 -1.59375q-0.203125 -0.953125 -0.203125 -2.203125l0 -11.125l2.234375 -0.390625l0 3.859375zm7.5542145 12.484375l0 -18.234375l2.234375 -0.390625l0 6.390625q0.625 -0.25 1.328125 -0.375q0.703125 -0.140625 1.40625 -0.140625q1.484375 0 2.46875 0.421875q0.984375 0.421875 1.5625 1.1875q0.59375 0.75 0.828125 1.8125q0.25 1.046875 0.25 2.3125l0 7.015625l-2.234375 0l0 -6.53125q0 -1.15625 -0.15625 -1.96875q-0.15625 -0.8125 -0.515625 -1.3125q-0.359375 -0.5 -0.96875 -0.734375q-0.59375 -0.234375 -1.484375 -0.234375q-0.359375 0 -0.75 0.046875q-0.375 0.046875 -0.71875 0.109375q-0.34375 0.0625 -0.625 0.140625q-0.28125 0.0625 -0.390625 0.109375l0 10.375l-2.234375 0zm13.000839 -6.21875q0 -1.65625 0.484375 -2.890625q0.484375 -1.234375 1.265625 -2.046875q0.796875 -0.8125 1.828125 -1.21875q1.03125 -0.421875 2.109375 -0.421875q2.53125 0 3.875 1.578125q1.34375 1.578125 1.34375 4.78125q0 0.15625 0 0.390625q0 0.21875 -0.03125 0.40625l-8.546875 0q0.15625 1.9375 1.125 2.953125q0.984375 1.0 3.078125 1.0q1.171875 0 1.96875 -0.203125q0.8125 -0.203125 1.21875 -0.390625l0.3125 1.875q-0.40625 0.21875 -1.421875 0.453125q-1.015625 0.234375 -2.3125 0.234375q-1.640625 0 -2.828125 -0.484375q-1.1875 -0.5 -1.953125 -1.359375q-0.765625 -0.859375 -1.140625 -2.046875q-0.375 -1.1875 -0.375 -2.609375zm8.578125 -1.21875q0.015625 -1.515625 -0.765625 -2.484375q-0.78125 -0.96875 -2.140625 -0.96875q-0.765625 0 -1.359375 0.296875q-0.59375 0.296875 -1.0 0.78125q-0.40625 0.46875 -0.640625 1.09375q-0.21875 0.625 -0.296875 1.28125l6.203125 0zm10.15033 -5.3125q0.28125 0 0.65625 0.046875q0.375 0.03125 0.734375 0.09375q0.359375 0.0625 0.65625 0.125q0.296875 0.046875 0.453125 0.09375l-0.390625 1.953125q-0.265625 -0.09375 -0.875 -0.21875q-0.609375 -0.140625 -1.578125 -0.140625q-0.625 0 -1.234375 0.140625q-0.609375 0.125 -0.796875 0.171875l0 10.484375l-2.234375 0l0 -11.953125q0.796875 -0.28125 1.96875 -0.53125q1.171875 -0.265625 2.640625 -0.265625zm8.873352 11.140625q0.796875 0 1.4062424 -0.03125q0.609375 -0.046875 1.015625 -0.140625l0 -3.71875q-0.234375 -0.109375 -0.78125 -0.1875q-0.5312424 -0.09375 -1.2968674 -0.09375q-0.515625 0 -1.078125 0.078125q-0.5625 0.0625 -1.03125 0.296875q-0.46875 0.21875 -0.78125 0.625q-0.3125 0.390625 -0.3125 1.03125q0 1.203125 0.765625 1.671875q0.78125 0.46875 2.09375 0.46875zm-0.1875 -11.1875q1.34375 0 2.2656174 0.359375q0.921875 0.34375 1.484375 0.984375q0.5625 0.625 0.796875 1.5q0.25 0.875 0.25 1.9375l0 7.796875q-0.28125 0.046875 -0.796875 0.140625q-0.515625 0.078125 -1.171875 0.140625q-0.640625 0.078125 -1.4062424 0.140625q-0.75 0.0625 -1.5 0.0625q-1.046875 0 -1.9375 -0.21875q-0.890625 -0.21875 -1.546875 -0.6875q-0.640625 -0.46875 -1.0 -1.234375q-0.359375 -0.765625 -0.359375 -1.84375q0 -1.03125 0.421875 -1.765625q0.421875 -0.75 1.140625 -1.203125q0.71875 -0.46875 1.671875 -0.671875q0.96875 -0.21875 2.015625 -0.21875q0.34375 0 0.703125 0.03125q0.359375 0.03125 0.6718674 0.09375q0.328125 0.0625 0.5625 0.109375q0.25 0.046875 0.34375 0.078125l0 -0.625q0 -0.5625 -0.125 -1.09375q-0.109375 -0.546875 -0.421875 -0.96875q-0.3125 -0.421875 -0.8593674 -0.671875q-0.53125 -0.25 -1.390625 -0.25q-1.109375 0 -1.9375 0.15625q-0.828125 0.15625 -1.234375 0.328125l-0.265625 -1.84375q0.4375 -0.203125 1.4375 -0.375q1.015625 -0.1875 2.1875 -0.1875zm17.152962 6.578125q0 -2.1875 -1.078125 -3.359375q-1.078125 -1.171875 -2.875 -1.171875q-1.015625 0 -1.578125 0.078125q-0.5625 0.0625 -0.890625 0.15625l0 7.875q0.40625 0.34375 1.171875 0.65625q0.765625 0.296875 1.6875 0.296875q0.953125 0 1.640625 -0.34375q0.6875 -0.34375 1.109375 -0.953125q0.4375 -0.609375 0.625 -1.4375q0.1875 -0.828125 0.1875 -1.796875zm2.328125 0q0 1.421875 -0.375 2.625q-0.359375 1.1875 -1.078125 2.0625q-0.71875 0.859375 -1.765625 1.34375q-1.046875 0.46875 -2.390625 0.46875q-1.078125 0 -1.90625 -0.28125q-0.828125 -0.28125 -1.234375 -0.546875l0 4.984375l-2.234375 0l0 -16.53125q0.796875 -0.1875 1.984375 -0.421875q1.1875 -0.234375 2.734375 -0.234375q1.453125 0 2.59375 0.46875q1.15625 0.453125 1.96875 1.296875q0.828125 0.828125 1.265625 2.046875q0.4375 1.203125 0.4375 2.71875zm11.807831 0q0 -2.1875 -1.078125 -3.359375q-1.078125 -1.171875 -2.875 -1.171875q-1.015625 0 -1.578125 0.078125q-0.5625 0.0625 -0.890625 0.15625l0 7.875q0.40625 0.34375 1.171875 0.65625q0.765625 0.296875 1.6875 0.296875q0.953125 0 1.640625 -0.34375q0.6875 -0.34375 1.109375 -0.953125q0.4375 -0.609375 0.625 -1.4375q0.1875 -0.828125 0.1875 -1.796875zm2.328125 0q0 1.421875 -0.375 2.625q-0.359375 1.1875 -1.078125 2.0625q-0.71875 0.859375 -1.765625 1.34375q-1.046875 0.46875 -2.390625 0.46875q-1.078125 0 -1.90625 -0.28125q-0.828125 -0.28125 -1.234375 -0.546875l0 4.984375l-2.234375 0l0 -16.53125q0.796875 -0.1875 1.984375 -0.421875q1.1875 -0.234375 2.734375 -0.234375q1.453125 0 2.59375 0.46875q1.15625 0.453125 1.96875 1.296875q0.828125 0.828125 1.265625 2.046875q0.4375 1.203125 0.4375 2.71875zm5.792206 4.921875q0 0.65625 -0.4375 1.140625q-0.421875 0.46875 -1.171875 0.46875q-0.75 0 -1.1875 -0.46875q-0.421875 -0.484375 -0.421875 -1.140625q0 -0.640625 0.421875 -1.125q0.4375 -0.484375 1.1875 -0.484375q0.75 0 1.171875 0.484375q0.4375 0.484375 0.4375 1.125zm7.8727264 -11.453125q0.28125 0 0.65625 0.046875q0.375 0.03125 0.734375 0.09375q0.359375 0.0625 0.65625 0.125q0.296875 0.046875 0.453125 0.09375l-0.390625 1.953125q-0.265625 -0.09375 -0.875 -0.21875q-0.609375 -0.140625 -1.578125 -0.140625q-0.625 0 -1.234375 0.140625q-0.609375 0.125 -0.796875 0.171875l0 10.484375l-2.234375 0l0 -11.953125q0.796875 -0.28125 1.96875 -0.53125q1.171875 -0.265625 2.640625 -0.265625zm6.888977 0.828125q0.40625 -0.265625 1.234375 -0.546875q0.828125 -0.296875 1.90625 -0.296875q1.34375 0 2.390625 0.484375q1.046875 0.46875 1.765625 1.34375q0.71875 0.859375 1.078125 2.0625q0.375 1.1875 0.375 2.640625q0 1.5 -0.4375 2.71875q-0.4375 1.21875 -1.265625 2.0625q-0.8125 0.828125 -1.96875 1.28125q-1.140625 0.453125 -2.59375 0.453125q-1.546875 0 -2.75 -0.21875q-1.203125 -0.203125 -1.96875 -0.421875l0 -17.875l2.234375 -0.390625l0 6.703125zm0 9.984375q0.328125 0.09375 0.9375 0.171875q0.625 0.078125 1.53125 0.078125q1.796875 0 2.875 -1.1875q1.078125 -1.1875 1.078125 -3.359375q0 -0.96875 -0.1875 -1.796875q-0.1875 -0.84375 -0.625 -1.453125q-0.421875 -0.625 -1.109375 -0.96875q-0.6875 -0.34375 -1.640625 -0.34375q-0.921875 0 -1.6875 0.3125q-0.765625 0.3125 -1.171875 0.640625l0 7.90625z" fill-rule="nonzero"></path><path fill="#1c4587" d="m359.72845 129.83649l0 0c0 -10.915451 8.848724 -19.764175 19.76419 -19.764175l166.64487 0c5.2418213 0 10.268921 2.0822906 13.975403 5.7887955c3.706482 3.7064972 5.7888184 8.733597 5.7888184 13.97538l0 79.05434c0 10.915451 -8.848755 19.764175 -19.764221 19.764175l-166.64487 0c-10.915466 0 -19.76419 -8.848724 -19.76419 -19.764175z" fill-rule="nonzero"></path><path stroke="#000000" stroke-width="1.0" stroke-linejoin="round" stroke-linecap="butt" d="m359.72845 129.83649l0 0c0 -10.915451 8.848724 -19.764175 19.76419 -19.764175l166.64487 0c5.2418213 0 10.268921 2.0822906 13.975403 5.7887955c3.706482 3.7064972 5.7888184 8.733597 5.7888184 13.97538l0 79.05434c0 10.915451 -8.848755 19.764175 -19.764221 19.764175l-166.64487 0c-10.915466 0 -19.76419 -8.848724 -19.76419 -19.764175z" fill-rule="nonzero"></path><path fill="#ffffff" d="m430.0511 161.27866l0 2.015625l-5.234375 0l0 14.609375l-2.328125 0l0 -14.609375l-5.21875 0l0 -2.015625l12.78125 0zm1.606842 10.40625q0 -1.65625 0.484375 -2.890625q0.484375 -1.234375 1.265625 -2.046875q0.796875 -0.8125 1.828125 -1.21875q1.03125 -0.421875 2.109375 -0.421875q2.53125 0 3.875 1.578125q1.34375 1.578125 1.34375 4.78125q0 0.15625 0 0.390625q0 0.21875 -0.03125 0.40625l-8.546875 0q0.15625 1.9375 1.125 2.953125q0.984375 1.0 3.078125 1.0q1.171875 0 1.96875 -0.203125q0.8125 -0.203125 1.21875 -0.390625l0.3125 1.875q-0.40625 0.21875 -1.421875 0.453125q-1.015625 0.234375 -2.3125 0.234375q-1.640625 0 -2.828125 -0.484375q-1.1875 -0.5 -1.953125 -1.359375q-0.765625 -0.859375 -1.140625 -2.046875q-0.375 -1.1875 -0.375 -2.609375zm8.578125 -1.21875q0.015625 -1.515625 -0.765625 -2.484375q-0.78125 -0.96875 -2.140625 -0.96875q-0.765625 0 -1.359375 0.296875q-0.59375 0.296875 -1.0 0.78125q-0.40625 0.46875 -0.640625 1.09375q-0.21875 0.625 -0.296875 1.28125l6.203125 0zm9.27533 7.671875q-2.0625 -0.046875 -2.921875 -0.875q-0.859375 -0.84375 -0.859375 -2.625l0 -14.96875l2.234375 -0.390625l0 15.0q0 0.546875 0.09375 0.90625q0.09375 0.359375 0.3125 0.578125q0.21875 0.21875 0.578125 0.328125q0.359375 0.109375 0.875 0.1875l-0.3125 1.859375zm2.114502 -6.453125q0 -1.65625 0.484375 -2.890625q0.484375 -1.234375 1.265625 -2.046875q0.796875 -0.8125 1.828125 -1.21875q1.03125 -0.421875 2.109375 -0.421875q2.53125 0 3.875 1.578125q1.34375 1.578125 1.34375 4.78125q0 0.15625 0 0.390625q0 0.21875 -0.03125 0.40625l-8.546875 0q0.15625 1.9375 1.125 2.953125q0.984375 1.0 3.078125 1.0q1.171875 0 1.96875 -0.203125q0.8125 -0.203125 1.21875 -0.390625l0.3125 1.875q-0.40625 0.21875 -1.421875 0.453125q-1.015625 0.234375 -2.3125 0.234375q-1.640625 0 -2.828125 -0.484375q-1.1875 -0.5 -1.953125 -1.359375q-0.765625 -0.859375 -1.140625 -2.046875q-0.375 -1.1875 -0.375 -2.609375zm8.578125 -1.21875q0.015625 -1.515625 -0.765625 -2.484375q-0.78125 -0.96875 -2.140625 -0.96875q-0.765625 0 -1.359375 0.296875q-0.59375 0.296875 -1.0 0.78125q-0.40625 0.46875 -0.640625 1.09375q-0.21875 0.625 -0.296875 1.28125l6.203125 0zm13.36908 6.1875q-0.296875 0.1875 -1.125 0.5q-0.828125 0.296875 -1.921875 0.296875q-1.140625 0 -2.140625 -0.359375q-0.984375 -0.359375 -1.734375 -1.109375q-0.734375 -0.765625 -1.171875 -1.890625q-0.4375 -1.125 -0.4375 -2.6875q0 -1.375 0.40625 -2.515625q0.421875 -1.140625 1.1875 -1.96875q0.78125 -0.828125 1.90625 -1.296875q1.140625 -0.46875 2.546875 -0.46875q1.5625 0 2.71875 0.234375q1.171875 0.234375 1.96875 0.421875l0 11.140625q0 2.875 -1.5 4.171875q-1.484375 1.296875 -4.5 1.296875q-1.171875 0 -2.21875 -0.203125q-1.046875 -0.1875 -1.8125 -0.453125l0.40625 -1.9375q0.671875 0.265625 1.640625 0.46875q0.96875 0.203125 2.03125 0.203125q1.984375 0 2.859375 -0.796875q0.890625 -0.78125 0.890625 -2.515625l0 -0.53125zm-0.03125 -9.265625q-0.328125 -0.09375 -0.90625 -0.171875q-0.5625 -0.09375 -1.515625 -0.09375q-1.796875 0 -2.78125 1.1875q-0.96875 1.171875 -0.96875 3.109375q0 1.078125 0.28125 1.859375q0.28125 0.765625 0.75 1.265625q0.46875 0.5 1.078125 0.75q0.609375 0.234375 1.25 0.234375q0.890625 0 1.625 -0.25q0.75 -0.25 1.1875 -0.59375l0 -7.296875zm10.684448 -2.234375q0.28125 0 0.65625 0.046875q0.375 0.03125 0.734375 0.09375q0.359375 0.0625 0.65625 0.125q0.296875 0.046875 0.453125 0.09375l-0.390625 1.953125q-0.265625 -0.09375 -0.875 -0.21875q-0.609375 -0.140625 -1.578125 -0.140625q-0.625 0 -1.234375 0.140625q-0.609375 0.125 -0.796875 0.171875l0 10.484375l-2.234375 0l0 -11.953125q0.796875 -0.28125 1.96875 -0.53125q1.171875 -0.265625 2.640625 -0.265625zm8.873352 11.140625q0.796875 0 1.40625 -0.03125q0.609375 -0.046875 1.015625 -0.140625l0 -3.71875q-0.234375 -0.109375 -0.78125 -0.1875q-0.53125 -0.09375 -1.296875 -0.09375q-0.515625 0 -1.078125 0.078125q-0.5625 0.0625 -1.03125 0.296875q-0.46875 0.21875 -0.78125 0.625q-0.3125 0.390625 -0.3125 1.03125q0 1.203125 0.765625 1.671875q0.78125 0.46875 2.09375 0.46875zm-0.1875 -11.1875q1.34375 0 2.265625 0.359375q0.921875 0.34375 1.484375 0.984375q0.5625 0.625 0.796875 1.5q0.25 0.875 0.25 1.9375l0 7.796875q-0.28125 0.046875 -0.796875 0.140625q-0.515625 0.078125 -1.171875 0.140625q-0.640625 0.078125 -1.40625 0.140625q-0.75 0.0625 -1.5 0.0625q-1.046875 0 -1.9375 -0.21875q-0.890625 -0.21875 -1.546875 -0.6875q-0.640625 -0.46875 -1.0 -1.234375q-0.359375 -0.765625 -0.359375 -1.84375q0 -1.03125 0.421875 -1.765625q0.421875 -0.75 1.140625 -1.203125q0.71875 -0.46875 1.671875 -0.671875q0.96875 -0.21875 2.015625 -0.21875q0.34375 0 0.703125 0.03125q0.359375 0.03125 0.671875 0.09375q0.328125 0.0625 0.5625 0.109375q0.25 0.046875 0.34375 0.078125l0 -0.625q0 -0.5625 -0.125 -1.09375q-0.109375 -0.546875 -0.421875 -0.96875q-0.3125 -0.421875 -0.859375 -0.671875q-0.53125 -0.25 -1.390625 -0.25q-1.109375 0 -1.9375 0.15625q-0.828125 0.15625 -1.234375 0.328125l-0.265625 -1.84375q0.4375 -0.203125 1.4375 -0.375q1.015625 -0.1875 2.1875 -0.1875zm13.371735 -5.828125q0.984375 0 1.6875 0.140625q0.703125 0.140625 1.0 0.265625l-0.40625 1.921875q-0.296875 -0.140625 -0.828125 -0.265625q-0.515625 -0.140625 -1.296875 -0.140625q-1.546875 0 -2.171875 0.859375q-0.625 0.84375 -0.625 2.28125l0 1.078125l4.796875 0l0 1.875l-4.796875 0l0 10.609375l-2.234375 0l0 -13.609375q0 -2.40625 1.171875 -3.703125q1.171875 -1.3125 3.703125 -1.3125z" fill-rule="nonzero"></path><path fill="#6fa8dc" d="m255.21928 164.07494l80.56694 0l0 -6.9448853l13.88974 13.8897705l-13.88974 13.889755l0 -6.94487l-80.56694 0z" fill-rule="nonzero"></path><path stroke="#000000" stroke-width="1.0" stroke-linejoin="round" stroke-linecap="butt" d="m255.21928 164.07494l80.56694 0l0 -6.9448853l13.88974 13.8897705l-13.88974 13.889755l0 -6.94487l-80.56694 0z" fill-rule="nonzero"></path><path fill="#000000" fill-opacity="0.0" d="m255.20473 118.1706l94.45668 0l0 38.96064l-94.45668 0z" fill-rule="nonzero"></path><path fill="#000000" d="m286.57513 150.56998q-1.625 0 -2.828125 -0.5q-1.203125 -0.5 -1.96875 -1.375q-0.765625 -0.890625 -1.140625 -2.078125q-0.375 -1.203125 -0.375 -2.59375l0 -10.4375l2.328125 0l0 10.171875q0 2.5 1.109375 3.625q1.109375 1.125 2.875 1.125q0.890625 0 1.625 -0.265625q0.734375 -0.28125 1.25 -0.859375q0.53125 -0.578125 0.8125 -1.46875q0.296875 -0.90625 0.296875 -2.15625l0 -10.171875l2.328125 0l0 10.4375q0 1.390625 -0.375 2.59375q-0.359375 1.1875 -1.140625 2.078125q-0.78125 0.875 -1.96875 1.375q-1.1875 0.5 -2.828125 0.5zm23.980713 -8.6875q0 2.15625 -0.671875 3.765625q-0.671875 1.59375 -1.90625 2.640625q-1.21875 1.03125 -2.921875 1.546875q-1.703125 0.515625 -3.734375 0.515625q-1.015625 0 -2.234375 -0.09375q-1.203125 -0.078125 -2.1875 -0.3125l0 -16.125q0.984375 -0.234375 2.1875 -0.3125q1.21875 -0.09375 2.234375 -0.09375q2.03125 0 3.734375 0.515625q1.703125 0.515625 2.921875 1.5625q1.234375 1.03125 1.90625 2.640625q0.671875 1.59375 0.671875 3.75zm-9.046875 6.4375q3.3125 0 4.9375 -1.6875q1.640625 -1.703125 1.640625 -4.75q0 -3.046875 -1.640625 -4.734375q-1.625 -1.703125 -4.9375 -1.703125q-0.984375 0 -1.53125 0.03125q-0.53125 0.015625 -0.75 0.046875l0 12.71875q0.21875 0.03125 0.75 0.0625q0.546875 0.015625 1.53125 0.015625zm16.924438 -14.90625q3.5 0 5.375 1.328125q1.890625 1.328125 1.890625 3.96875q0 1.4375 -0.515625 2.46875q-0.515625 1.015625 -1.484375 1.65625q-0.96875 0.625 -2.375 0.921875q-1.390625 0.28125 -3.140625 0.28125l-1.84375 0l0 6.171875l-2.328125 0l0 -16.390625q0.984375 -0.234375 2.1875 -0.3125q1.21875 -0.09375 2.234375 -0.09375zm0.1875 2.03125q-1.484375 0 -2.28125 0.078125l0 6.53125l1.75 0q1.203125 0 2.15625 -0.15625q0.96875 -0.15625 1.625 -0.53125q0.65625 -0.375 1.015625 -1.015625q0.359375 -0.65625 0.359375 -1.65625q0 -0.96875 -0.375 -1.59375q-0.359375 -0.625 -1.0 -0.984375q-0.640625 -0.375 -1.484375 -0.515625q-0.828125 -0.15625 -1.765625 -0.15625z" fill-rule="nonzero"></path><path fill="#6fa8dc" d="m575.95416 164.07494l80.566956 0l0 -6.9448853l13.8897705 13.8897705l-13.8897705 13.889755l0 -6.94487l-80.566956 0z" fill-rule="nonzero"></path><path stroke="#000000" stroke-width="1.0" stroke-linejoin="round" stroke-linecap="butt" d="m575.95416 164.07494l80.566956 0l0 -6.9448853l13.8897705 13.8897705l-13.8897705 13.889755l0 -6.94487l-80.566956 0z" fill-rule="nonzero"></path><path fill="#000000" fill-opacity="0.0" d="m575.9554 118.1706l92.15747 0l0 38.96064l-92.15747 0z" fill-rule="nonzero"></path><path fill="#000000" d="m605.24945 133.5856l2.328125 0l0 16.625l-2.328125 0l0 -7.6875l-8.140625 0l0 7.6875l-2.328125 0l0 -16.625l2.328125 0l0 6.921875l8.140625 0l0 -6.921875zm17.560547 0l0 2.015625l-5.234375 0l0 14.609375l-2.328125 0l0 -14.609375l-5.21875 0l0 -2.015625l12.78125 0zm13.559998 0l0 2.015625l-5.234375 0l0 14.609375l-2.328125 0l0 -14.609375l-5.21875 0l0 -2.015625l12.78125 0zm6.8724365 -0.171875q3.5 0 5.375 1.328125q1.890625 1.328125 1.890625 3.96875q0 1.4375 -0.515625 2.46875q-0.515625 1.015625 -1.484375 1.65625q-0.96875 0.625 -2.375 0.921875q-1.390625 0.28125 -3.140625 0.28125l-1.84375 0l0 6.171875l-2.328125 0l0 -16.390625q0.984375 -0.234375 2.1875 -0.3125q1.21875 -0.09375 2.234375 -0.09375zm0.1875 2.03125q-1.484375 0 -2.28125 0.078125l0 6.53125l1.75 0q1.203125 0 2.15625 -0.15625q0.96875 -0.15625 1.625 -0.53125q0.65625 -0.375 1.015625 -1.015625q0.359375 -0.65625 0.359375 -1.65625q0 -0.96875 -0.375 -1.59375q-0.359375 -0.625 -1.0 -0.984375q-0.640625 -0.375 -1.484375 -0.515625q-0.828125 -0.15625 -1.765625 -0.15625z" fill-rule="nonzero"></path><path fill="#1c4587" d="m680.46454 126.55249l0 0c0 8.186432 46.153503 14.822845 103.08667 14.822845c56.933167 0 103.08661 -6.6364136 103.08661 -14.822845l0 88.93701c0 8.186432 -46.153442 14.82283 -103.08661 14.82283c-56.933167 0 -103.08667 -6.6363983 -103.08667 -14.82283z" fill-rule="nonzero"></path><path fill="#768fb7" d="m680.46454 126.55249l0 0c0 -8.186424 46.153503 -14.82283 103.08667 -14.82283c56.933167 0 103.08661 6.636406 103.08661 14.82283l0 0c0 8.186432 -46.153442 14.822845 -103.08661 14.822845c-56.933167 0 -103.08667 -6.6364136 -103.08667 -14.822845z" fill-rule="nonzero"></path><path fill="#000000" fill-opacity="0.0" d="m886.6378 126.55249l0 0c0 8.186432 -46.153442 14.822845 -103.08661 14.822845c-56.933167 0 -103.08667 -6.6364136 -103.08667 -14.822845l0 0c0 -8.186424 46.153503 -14.82283 103.08667 -14.82283c56.933167 0 103.08661 6.636406 103.08661 14.82283l0 88.93701c0 8.186432 -46.153442 14.82283 -103.08661 14.82283c-56.933167 0 -103.08667 -6.6363983 -103.08667 -14.82283l0 -88.93701" fill-rule="nonzero"></path><path stroke="#000000" stroke-width="1.0" stroke-linejoin="round" stroke-linecap="butt" d="m886.6378 126.55249l0 0c0 8.186432 -46.153442 14.822845 -103.08661 14.822845c-56.933167 0 -103.08667 -6.6364136 -103.08667 -14.822845l0 0c0 -8.186424 46.153503 -14.82283 103.08667 -14.82283c56.933167 0 103.08661 6.636406 103.08661 14.82283l0 88.93701c0 8.186432 -46.153442 14.82283 -103.08661 14.82283c-56.933167 0 -103.08667 -6.6363983 -103.08667 -14.82283l0 -88.93701" fill-rule="nonzero"></path><path fill="#ffffff" d="m738.2978 170.34741l2.328125 0l0 16.625l-2.328125 0l0 -16.625zm6.3153687 4.5q0.765625 -0.1875 2.03125 -0.40625q1.28125 -0.21875 2.9375 -0.21875q1.484375 0 2.46875 0.421875q0.984375 0.421875 1.5625 1.1875q0.59375 0.75 0.828125 1.8125q0.25 1.046875 0.25 2.3125l0 7.015625l-2.234375 0l0 -6.53125q0 -1.15625 -0.15625 -1.96875q-0.15625 -0.8125 -0.515625 -1.3125q-0.359375 -0.5 -0.96875 -0.734375q-0.59375 -0.234375 -1.484375 -0.234375q-0.359375 0 -0.75 0.03125q-0.375 0.015625 -0.71875 0.0625q-0.34375 0.03125 -0.625 0.078125q-0.28125 0.046875 -0.390625 0.078125l0 10.53125l-2.234375 0l0 -12.125zm18.65094 -6.5q0.984375 0 1.6875 0.140625q0.703125 0.140625 1.0 0.265625l-0.40625 1.921875q-0.296875 -0.140625 -0.828125 -0.265625q-0.515625 -0.140625 -1.296875 -0.140625q-1.546875 0 -2.171875 0.859375q-0.625 0.84375 -0.625 2.28125l0 1.078125l4.796875 0l0 1.875l-4.796875 0l0 10.609375l-2.234375 0l0 -13.609375q0 -2.40625 1.171875 -3.703125q1.171875 -1.3125 3.703125 -1.3125zm8.123352 18.859375q-2.0625 -0.046875 -2.921875 -0.875q-0.859375 -0.84375 -0.859375 -2.625l0 -14.96875l2.234375 -0.390625l0 15.0q0 0.546875 0.09375 0.90625q0.09375 0.359375 0.3125 0.578125q0.21875 0.21875 0.578125 0.328125q0.359375 0.109375 0.875 0.1875l-0.3125 1.859375zm12.755127 -0.59375q-0.765625 0.1875 -2.03125 0.40625q-1.265625 0.21875 -2.921875 0.21875q-1.4375 0 -2.421875 -0.421875q-0.984375 -0.421875 -1.59375 -1.1875q-0.59375 -0.765625 -0.859375 -1.8125q-0.25 -1.046875 -0.25 -2.3125l0 -7.015625l2.234375 0l0 6.53125q0 2.28125 0.71875 3.265625q0.71875 0.984375 2.421875 0.984375q0.359375 0 0.734375 -0.015625q0.390625 -0.03125 0.71875 -0.0625q0.34375 -0.046875 0.609375 -0.078125q0.28125 -0.03125 0.40625 -0.078125l0 -10.546875l2.234375 0l0 12.125zm11.30719 0.359375q-0.265625 -0.53125 -0.65625 -1.171875q-0.375 -0.65625 -0.84375 -1.328125q-0.453125 -0.6875 -0.9375 -1.359375q-0.46875 -0.671875 -0.921875 -1.28125q-0.46875 0.609375 -0.953125 1.296875q-0.46875 0.671875 -0.921875 1.359375q-0.4375 0.6875 -0.828125 1.34375q-0.375 0.640625 -0.640625 1.140625l-2.296875 0q0.828125 -1.625 1.984375 -3.3125q1.171875 -1.703125 2.328125 -3.234375l-4.125 -5.9375l2.515625 0l2.984375 4.375l3.0 -4.375l2.375 0l-4.03125 5.78125q1.140625 1.5625 2.34375 3.3125q1.21875 1.734375 2.0625 3.390625l-2.4375 0zm18.592102 -8.328125q0 2.15625 -0.671875 3.765625q-0.671875 1.59375 -1.90625 2.640625q-1.21875 1.03125 -2.921875 1.546875q-1.703125 0.515625 -3.734375 0.515625q-1.015625 0 -2.234375 -0.09375q-1.203125 -0.078125 -2.1875 -0.3125l0 -16.125q0.984375 -0.234375 2.1875 -0.3125q1.21875 -0.09375 2.234375 -0.09375q2.03125 0 3.734375 0.515625q1.703125 0.515625 2.921875 1.5625q1.234375 1.03125 1.90625 2.640625q0.671875 1.59375 0.671875 3.75zm-9.046875 6.4375q3.3125 0 4.9375 -1.6875q1.640625 -1.703125 1.640625 -4.75q0 -3.046875 -1.640625 -4.734375q-1.625 -1.703125 -4.9375 -1.703125q-0.984375 0 -1.53125 0.03125q-0.53125 0.015625 -0.75 0.046875l0 12.71875q0.21875 0.03125 0.75 0.0625q0.546875 0.015625 1.53125 0.015625zm16.986938 2.03125q-0.5 0 -1.09375 -0.03125q-0.578125 -0.015625 -1.171875 -0.0625q-0.578125 -0.046875 -1.15625 -0.109375q-0.578125 -0.078125 -1.0625 -0.203125l0 -16.125q0.484375 -0.125 1.0625 -0.1875q0.578125 -0.078125 1.15625 -0.125q0.59375 -0.046875 1.171875 -0.0625q0.578125 -0.03125 1.078125 -0.03125q1.4375 0 2.6875 0.21875q1.265625 0.203125 2.1875 0.71875q0.9375 0.515625 1.453125 1.359375q0.53125 0.84375 0.53125 2.0625q0 1.375 -0.65625 2.25q-0.640625 0.875 -1.71875 1.3125q1.46875 0.421875 2.328125 1.359375q0.859375 0.9375 0.859375 2.640625q0 2.5 -1.84375 3.765625q-1.828125 1.25 -5.8125 1.25zm-2.171875 -7.890625l0 5.859375q0.25 0.015625 0.609375 0.046875q0.3125 0.015625 0.734375 0.03125q0.421875 0.015625 0.984375 0.015625q1.03125 0 1.953125 -0.125q0.921875 -0.140625 1.609375 -0.46875q0.703125 -0.34375 1.125 -0.9375q0.421875 -0.609375 0.421875 -1.515625q0 -0.8125 -0.3125 -1.375q-0.3125 -0.578125 -0.90625 -0.90625q-0.578125 -0.34375 -1.40625 -0.484375q-0.8125 -0.140625 -1.8125 -0.140625l-3.0 0zm0 -1.875l2.4375 0q0.875 0 1.640625 -0.109375q0.765625 -0.125 1.328125 -0.4375q0.5625 -0.3125 0.875 -0.8125q0.328125 -0.515625 0.328125 -1.28125q0 -0.71875 -0.34375 -1.203125q-0.328125 -0.5 -0.921875 -0.796875q-0.578125 -0.296875 -1.375 -0.4375q-0.78125 -0.15625 -1.671875 -0.15625q-0.890625 0 -1.390625 0.03125q-0.5 0.015625 -0.90625 0.0625l0 5.140625z" fill-rule="nonzero"></path><path fill="#000000" fill-opacity="0.0" d="m255.22047 178.96588l94.45668 0l0 38.960632l-94.45668 0z" fill-rule="nonzero"></path><path fill="#000000" d="m278.99335 204.57338q2.890625 0 2.890625 -1.96875q0 -0.609375 -0.265625 -1.03125q-0.25 -0.4375 -0.6875 -0.75q-0.4375 -0.3125 -1.0 -0.53125q-0.546875 -0.234375 -1.171875 -0.46875q-0.734375 -0.25 -1.375 -0.5625q-0.640625 -0.3125 -1.125 -0.734375q-0.46875 -0.4375 -0.75 -1.015625q-0.265625 -0.59375 -0.265625 -1.421875q0 -1.734375 1.171875 -2.703125q1.171875 -0.96875 3.25 -0.96875q1.203125 0 2.171875 0.265625q0.984375 0.25 1.4375 0.546875l-0.59375 1.5q-0.390625 -0.25 -1.1875 -0.484375q-0.78125 -0.234375 -1.828125 -0.234375q-0.53125 0 -1.0 0.125q-0.453125 0.109375 -0.796875 0.34375q-0.328125 0.21875 -0.53125 0.578125q-0.203125 0.34375 -0.203125 0.8125q0 0.53125 0.203125 0.890625q0.21875 0.359375 0.59375 0.640625q0.390625 0.28125 0.890625 0.515625q0.5 0.21875 1.109375 0.4375q0.859375 0.34375 1.5625 0.6875q0.71875 0.34375 1.234375 0.828125q0.53125 0.46875 0.8125 1.125q0.28125 0.65625 0.28125 1.578125q0 1.734375 -1.265625 2.671875q-1.265625 0.921875 -3.5625 0.921875q-0.78125 0 -1.4375 -0.109375q-0.640625 -0.09375 -1.15625 -0.234375q-0.515625 -0.140625 -0.890625 -0.296875q-0.359375 -0.171875 -0.578125 -0.28125l0.546875 -1.53125q0.4375 0.25 1.328125 0.5625q0.90625 0.296875 2.1875 0.296875zm8.409515 -8.5625l3.75 0l0 1.484375l-3.75 0l0 4.546875q0 0.75 0.109375 1.234375q0.125 0.484375 0.34375 0.765625q0.234375 0.265625 0.578125 0.390625q0.34375 0.109375 0.796875 0.109375q0.796875 0 1.28125 -0.171875q0.484375 -0.1875 0.671875 -0.265625l0.34375 1.453125q-0.265625 0.140625 -0.9375 0.328125q-0.65625 0.203125 -1.515625 0.203125q-1.0 0 -1.65625 -0.25q-0.65625 -0.25 -1.0625 -0.765625q-0.390625 -0.515625 -0.5625 -1.265625q-0.15625 -0.75 -0.15625 -1.734375l0 -8.828125l1.765625 -0.296875l0 3.0625zm9.187317 8.609375q0.625 0 1.109375 -0.03125q0.484375 -0.03125 0.8125 -0.109375l0 -2.9375q-0.1875 -0.109375 -0.625 -0.171875q-0.421875 -0.0625 -1.03125 -0.0625q-0.390625 0 -0.84375 0.0625q-0.4375 0.046875 -0.8125 0.234375q-0.375 0.171875 -0.625 0.484375q-0.234375 0.3125 -0.234375 0.828125q0 0.953125 0.59375 1.328125q0.609375 0.375 1.65625 0.375zm-0.140625 -8.859375q1.0625 0 1.78125 0.28125q0.734375 0.265625 1.171875 0.78125q0.453125 0.5 0.640625 1.1875q0.203125 0.6875 0.203125 1.53125l0 6.171875q-0.234375 0.03125 -0.640625 0.109375q-0.40625 0.0625 -0.921875 0.109375q-0.515625 0.0625 -1.109375 0.109375q-0.59375 0.046875 -1.1875 0.046875q-0.84375 0 -1.546875 -0.171875q-0.703125 -0.171875 -1.21875 -0.53125q-0.5 -0.375 -0.796875 -0.984375q-0.28125 -0.609375 -0.28125 -1.453125q0 -0.828125 0.328125 -1.40625q0.34375 -0.59375 0.90625 -0.953125q0.578125 -0.359375 1.328125 -0.53125q0.765625 -0.171875 1.609375 -0.171875q0.265625 0 0.546875 0.03125q0.28125 0.015625 0.53125 0.0625q0.265625 0.046875 0.453125 0.09375q0.1875 0.03125 0.265625 0.0625l0 -0.5q0 -0.4375 -0.09375 -0.859375q-0.09375 -0.4375 -0.34375 -0.765625q-0.25 -0.328125 -0.671875 -0.53125q-0.421875 -0.203125 -1.109375 -0.203125q-0.875 0 -1.53125 0.125q-0.65625 0.125 -0.984375 0.25l-0.203125 -1.453125q0.34375 -0.15625 1.140625 -0.296875q0.796875 -0.140625 1.734375 -0.140625zm8.191681 0.25l3.75 0l0 1.484375l-3.75 0l0 4.546875q0 0.75 0.109375 1.234375q0.125 0.484375 0.34375 0.765625q0.234375 0.265625 0.578125 0.390625q0.34375 0.109375 0.796875 0.109375q0.796875 0 1.28125 -0.171875q0.484375 -0.1875 0.671875 -0.265625l0.34375 1.453125q-0.265625 0.140625 -0.9375 0.328125q-0.65625 0.203125 -1.515625 0.203125q-1.0 0 -1.65625 -0.25q-0.65625 -0.25 -1.0625 -0.765625q-0.390625 -0.515625 -0.5625 -1.265625q-0.15625 -0.75 -0.15625 -1.734375l0 -8.828125l1.765625 -0.296875l0 3.0625zm8.140442 8.609375q1.09375 0 1.609375 -0.28125q0.53125 -0.296875 0.53125 -0.921875q0 -0.640625 -0.515625 -1.015625q-0.515625 -0.390625 -1.6875 -0.859375q-0.578125 -0.234375 -1.109375 -0.46875q-0.515625 -0.234375 -0.890625 -0.5625q-0.375 -0.328125 -0.609375 -0.78125q-0.234375 -0.453125 -0.234375 -1.125q0 -1.3125 0.96875 -2.078125q0.96875 -0.765625 2.640625 -0.765625q0.421875 0 0.84375 0.046875q0.421875 0.046875 0.78125 0.109375q0.359375 0.0625 0.625 0.140625q0.28125 0.078125 0.4375 0.140625l-0.328125 1.515625q-0.28125 -0.15625 -0.890625 -0.3125q-0.609375 -0.15625 -1.46875 -0.15625q-0.734375 0 -1.296875 0.296875q-0.546875 0.28125 -0.546875 0.921875q0 0.3125 0.125 0.5625q0.125 0.25 0.375 0.453125q0.265625 0.1875 0.640625 0.359375q0.390625 0.171875 0.921875 0.359375q0.703125 0.265625 1.25 0.53125q0.546875 0.25 0.9375 0.59375q0.390625 0.34375 0.59375 0.828125q0.21875 0.484375 0.21875 1.1875q0 1.375 -1.015625 2.078125q-1.015625 0.703125 -2.90625 0.703125q-1.296875 0 -2.046875 -0.21875q-0.734375 -0.21875 -1.0 -0.34375l0.3125 -1.515625q0.3125 0.109375 0.96875 0.34375q0.671875 0.234375 1.765625 0.234375zm16.945679 -5.328125q0 1.703125 -0.53125 2.96875q-0.53125 1.265625 -1.5 2.09375q-0.96875 0.828125 -2.3125 1.234375q-1.34375 0.40625 -2.96875 0.40625q-0.796875 0 -1.765625 -0.0625q-0.953125 -0.0625 -1.7187195 -0.25l0 -12.78125q0.7655945 -0.1875 1.7187195 -0.25q0.96875 -0.0625 1.765625 -0.0625q1.625 0 2.96875 0.40625q1.34375 0.40625 2.3125 1.234375q0.96875 0.828125 1.5 2.09375q0.53125 1.265625 0.53125 2.96875zm-7.15625 5.09375q2.625 0 3.90625 -1.34375q1.296875 -1.34375 1.296875 -3.75q0 -2.40625 -1.296875 -3.75q-1.28125 -1.34375 -3.90625 -1.34375q-0.78125 0 -1.21875 0.03125q-0.421875 0.015625 -0.578125 0.03125l0 10.0625q0.15625 0.03125 0.578125 0.046875q0.4375 0.015625 1.21875 0.015625z" fill-rule="nonzero"></path><path fill="#000000" fill-opacity="0.0" d="m575.9554 178.96588l94.456665 0l0 38.960632l-94.456665 0z" fill-rule="nonzero"></path><path fill="#000000" d="m612.19275 206.07338q-1.640625 -0.03125 -2.328125 -0.6875q-0.671875 -0.671875 -0.671875 -2.078125l0 -11.859375l1.765625 -0.3125l0 11.875q0 0.4375 0.078125 0.734375q0.078125 0.28125 0.25 0.453125q0.171875 0.171875 0.453125 0.265625q0.28125 0.078125 0.703125 0.125l-0.25 1.484375zm3.8900146 -0.1875l-1.765625 0l0 -9.875l1.765625 0l0 9.875zm-0.890625 -11.671875q-0.46875 0 -0.8125 -0.3125q-0.328125 -0.3125 -0.328125 -0.84375q0 -0.53125 0.328125 -0.84375q0.34375 -0.3125 0.8125 -0.3125q0.484375 0 0.8125 0.3125q0.328125 0.3125 0.328125 0.84375q0 0.53125 -0.328125 0.84375q-0.328125 0.3125 -0.8125 0.3125zm3.8450317 2.078125q0.609375 -0.15625 1.609375 -0.328125q1.015625 -0.171875 2.328125 -0.171875q1.171875 0 1.953125 0.34375q0.78125 0.328125 1.25 0.921875q0.46875 0.59375 0.65625 1.4375q0.1875 0.828125 0.1875 1.84375l0 5.546875l-1.765625 0l0 -5.171875q0 -0.90625 -0.125 -1.546875q-0.125 -0.65625 -0.40625 -1.046875q-0.28125 -0.40625 -0.765625 -0.578125q-0.46875 -0.1875 -1.171875 -0.1875q-0.28125 0 -0.59375 0.015625q-0.296875 0.015625 -0.578125 0.046875q-0.28125 0.03125 -0.5 0.078125q-0.21875 0.03125 -0.3125 0.046875l0 8.34375l-1.765625 0l0 -9.59375zm10.161804 4.671875q0 -1.3125 0.375 -2.28125q0.390625 -0.984375 1.015625 -1.625q0.625 -0.65625 1.4375 -0.96875q0.8125 -0.328125 1.671875 -0.328125q2.0 0 3.0625 1.25q1.0625 1.234375 1.0625 3.78125q0 0.109375 0 0.296875q0 0.1875 -0.015625 0.328125l-6.765625 0q0.109375 1.546875 0.890625 2.34375q0.78125 0.796875 2.4375 0.796875q0.921875 0 1.5625 -0.15625q0.640625 -0.171875 0.953125 -0.328125l0.25 1.484375q-0.3125 0.171875 -1.125 0.359375q-0.8125 0.203125 -1.828125 0.203125q-1.296875 0 -2.234375 -0.390625q-0.9375 -0.390625 -1.546875 -1.078125q-0.609375 -0.6875 -0.90625 -1.625q-0.296875 -0.9375 -0.296875 -2.0625zm6.78125 -0.96875q0.015625 -1.203125 -0.609375 -1.96875q-0.609375 -0.765625 -1.6875 -0.765625q-0.609375 0 -1.078125 0.234375q-0.46875 0.234375 -0.796875 0.625q-0.3125 0.375 -0.5 0.875q-0.171875 0.484375 -0.234375 1.0l4.90625 0z" fill-rule="nonzero"></path><path fill="#000000" d="m595.319 222.964q0 -1.734375 -0.859375 -2.65625q-0.84375 -0.9375 -2.265625 -0.9375q-0.796875 0 -1.25 0.0625q-0.453125 0.0625 -0.71875 0.125l0 6.234375q0.328125 0.265625 0.9375 0.515625q0.609375 0.25 1.328125 0.25q0.765625 0 1.296875 -0.265625q0.546875 -0.28125 0.890625 -0.765625q0.34375 -0.484375 0.484375 -1.140625q0.15625 -0.65625 0.15625 -1.421875zm1.84375 0q0 1.125 -0.296875 2.078125q-0.28125 0.9375 -0.859375 1.625q-0.5625 0.6875 -1.390625 1.078125q-0.828125 0.375 -1.890625 0.375q-0.859375 0 -1.515625 -0.234375q-0.65625 -0.234375 -0.984375 -0.4375l0 3.953125l-1.765625 0l0 -13.09375q0.625 -0.15625 1.5625 -0.328125q0.953125 -0.1875 2.1875 -0.1875q1.140625 0 2.046875 0.375q0.921875 0.359375 1.5625 1.03125q0.640625 0.65625 0.984375 1.609375q0.359375 0.953125 0.359375 2.15625zm5.9416504 -5.171875q0.21875 0 0.515625 0.03125q0.296875 0.03125 0.578125 0.078125q0.296875 0.046875 0.53125 0.09375q0.234375 0.046875 0.34375 0.09375l-0.296875 1.53125q-0.21875 -0.078125 -0.703125 -0.171875q-0.484375 -0.109375 -1.234375 -0.109375q-0.5 0 -0.984375 0.109375q-0.484375 0.09375 -0.640625 0.140625l0 8.296875l-1.765625 0l0 -9.46875q0.625 -0.21875 1.5625 -0.421875q0.9375 -0.203125 2.09375 -0.203125zm12.263794 5.15625q0 1.171875 -0.34375 2.125q-0.328125 0.953125 -0.953125 1.640625q-0.609375 0.671875 -1.46875 1.046875q-0.859375 0.375 -1.859375 0.375q-1.015625 0 -1.875 -0.375q-0.84375 -0.375 -1.46875 -1.046875q-0.609375 -0.6875 -0.953125 -1.640625q-0.34375 -0.953125 -0.34375 -2.125q0 -1.15625 0.34375 -2.109375q0.34375 -0.96875 0.953125 -1.65625q0.625 -0.6875 1.46875 -1.046875q0.859375 -0.375 1.875 -0.375q1.0 0 1.859375 0.375q0.859375 0.359375 1.46875 1.046875q0.625 0.6875 0.953125 1.65625q0.34375 0.953125 0.34375 2.109375zm-1.84375 0q0 -1.671875 -0.75 -2.640625q-0.75 -0.984375 -2.03125 -0.984375q-1.296875 0 -2.046875 0.984375q-0.75 0.96875 -0.75 2.640625q0 1.671875 0.75 2.65625q0.75 0.96875 2.046875 0.96875q1.28125 0 2.03125 -0.96875q0.75 -0.984375 0.75 -2.65625zm5.788452 -4.9375l3.75 0l0 1.484375l-3.75 0l0 4.546875q0 0.75 0.109375 1.234375q0.125 0.484375 0.34375 0.765625q0.234375 0.265625 0.578125 0.390625q0.34375 0.109375 0.796875 0.109375q0.796875 0 1.28125 -0.171875q0.484375 -0.1875 0.671875 -0.265625l0.34375 1.453125q-0.265625 0.140625 -0.9375 0.328125q-0.65625 0.203125 -1.515625 0.203125q-1.0 0 -1.65625 -0.25q-0.65625 -0.25 -1.0625 -0.765625q-0.390625 -0.515625 -0.5625 -1.265625q-0.15625 -0.75 -0.15625 -1.734375l0 -8.828125l1.765625 -0.296875l0 3.0625zm14.562317 4.9375q0 1.171875 -0.34375 2.125q-0.328125 0.953125 -0.953125 1.640625q-0.609375 0.671875 -1.46875 1.046875q-0.859375 0.375 -1.859375 0.375q-1.015625 0 -1.875 -0.375q-0.84375 -0.375 -1.46875 -1.046875q-0.609375 -0.6875 -0.953125 -1.640625q-0.34375 -0.953125 -0.34375 -2.125q0 -1.15625 0.34375 -2.109375q0.34375 -0.96875 0.953125 -1.65625q0.625 -0.6875 1.46875 -1.046875q0.859375 -0.375 1.875 -0.375q1.0 0 1.859375 0.375q0.859375 0.359375 1.46875 1.046875q0.625 0.6875 0.953125 1.65625q0.34375 0.953125 0.34375 2.109375zm-1.84375 0q0 -1.671875 -0.75 -2.640625q-0.75 -0.984375 -2.03125 -0.984375q-1.296875 0 -2.046875 0.984375q-0.75 0.96875 -0.75 2.640625q0 1.671875 0.75 2.65625q0.75 0.96875 2.046875 0.96875q1.28125 0 2.03125 -0.96875q0.75 -0.984375 0.75 -2.65625zm8.429077 5.171875q-1.203125 0 -2.109375 -0.375q-0.890625 -0.390625 -1.515625 -1.078125q-0.609375 -0.6875 -0.921875 -1.625q-0.296875 -0.9375 -0.296875 -2.078125q0 -1.140625 0.328125 -2.09375q0.34375 -0.953125 0.9375 -1.640625q0.609375 -0.6875 1.484375 -1.078125q0.890625 -0.390625 1.984375 -0.390625q0.65625 0 1.3125 0.109375q0.671875 0.109375 1.28125 0.359375l-0.390625 1.5q-0.40625 -0.1875 -0.9375 -0.296875q-0.515625 -0.109375 -1.09375 -0.109375q-1.484375 0 -2.28125 0.9375q-0.78125 0.921875 -0.78125 2.703125q0 0.796875 0.171875 1.46875q0.1875 0.65625 0.578125 1.140625q0.390625 0.46875 1.0 0.734375q0.609375 0.25 1.484375 0.25q0.703125 0 1.265625 -0.125q0.578125 -0.140625 0.890625 -0.296875l0.25 1.484375q-0.15625 0.09375 -0.4375 0.1875q-0.28125 0.078125 -0.640625 0.140625q-0.359375 0.078125 -0.78125 0.125q-0.40625 0.046875 -0.78125 0.046875zm13.096985 -5.171875q0 1.171875 -0.34375 2.125q-0.328125 0.953125 -0.953125 1.640625q-0.609375 0.671875 -1.46875 1.046875q-0.859375 0.375 -1.859375 0.375q-1.015625 0 -1.875 -0.375q-0.84375 -0.375 -1.46875 -1.046875q-0.609375 -0.6875 -0.953125 -1.640625q-0.34375 -0.953125 -0.34375 -2.125q0 -1.15625 0.34375 -2.109375q0.34375 -0.96875 0.953125 -1.65625q0.625 -0.6875 1.46875 -1.046875q0.859375 -0.375 1.875 -0.375q1.0 0 1.859375 0.375q0.859375 0.359375 1.46875 1.046875q0.625 0.6875 0.953125 1.65625q0.34375 0.953125 0.34375 2.109375zm-1.84375 0q0 -1.671875 -0.75 -2.640625q-0.75 -0.984375 -2.03125 -0.984375q-1.296875 0 -2.046875 0.984375q-0.75 0.96875 -0.75 2.640625q0 1.671875 0.75 2.65625q0.75 0.96875 2.046875 0.96875q1.28125 0 2.03125 -0.96875q0.75 -0.984375 0.75 -2.65625zm7.100952 5.125q-1.640625 -0.03125 -2.328125 -0.6875q-0.671875 -0.671875 -0.671875 -2.078125l0 -11.859375l1.765625 -0.3125l0 11.875q0 0.4375 0.078125 0.734375q0.078125 0.28125 0.25 0.453125q0.171875 0.171875 0.453125 0.265625q0.28125 0.078125 0.703125 0.125l-0.25 1.484375z" fill-rule="nonzero"></path><path fill="#6fa8dc" d="m432.49475 251.84154l0 0c0 6.4055023 8.93869 11.999802 21.73227 13.601181l0 -3.6220398l7.24411 7.690155l-7.24411 6.7980347l0 -3.6220398l0 0c-12.793579 -1.6013794 -21.73227 -7.1956787 -21.73227 -13.601196z" fill-rule="nonzero"></path><path fill="#5886af" d="m461.47113 245.03839l0 0c-13.125702 0 -24.612122 4.277237 -27.996552 10.425186l0 0c-2.3215027 -4.2170715 -0.4675598 -8.717682 5.0169067 -12.179062c5.484497 -3.46138 13.976318 -5.490219 22.979645 -5.490219z" fill-rule="nonzero"></path><path fill="#000000" fill-opacity="0.0" d="m432.49475 251.84154l0 0c0 6.4055023 8.93869 11.999802 21.73227 13.601181l0 -3.6220398l7.24411 7.690155l-7.24411 6.7980347l0 -3.6220398l0 0c-12.793579 -1.6013794 -21.73227 -7.1956787 -21.73227 -13.601196l0 -7.244095l0 0c0 -7.758087 12.973175 -14.047241 28.97638 -14.047241l0 7.244095l0 0c-13.125702 0 -24.612122 4.277237 -27.996552 10.425186" fill-rule="nonzero"></path><path stroke="#000000" stroke-width="1.0" stroke-linejoin="round" stroke-linecap="butt" d="m432.49475 251.84154l0 0c0 6.4055023 8.93869 11.999802 21.73227 13.601181l0 -3.6220398l7.24411 7.690155l-7.24411 6.7980347l0 -3.6220398l0 0c-12.793579 -1.6013794 -21.73227 -7.1956787 -21.73227 -13.601196l0 -7.244095l0 0c0 -7.758087 12.973175 -14.047241 28.97638 -14.047241l0 7.244095l0 0c-13.125702 0 -24.612122 4.277237 -27.996552 10.425186" fill-rule="nonzero"></path><path fill="#6fa8dc" d="m493.41995 259.90945l0 0c0 -6.4055176 -8.93869 -11.999817 -21.7323 -13.601196l0 3.622055l-7.2440796 -7.690155l7.2440796 -6.7980347l0 3.6220398l0 0c12.79361 1.6013794 21.7323 7.1956787 21.7323 13.601196z" fill-rule="nonzero"></path><path fill="#5886af" d="m464.44357 266.7126l0 0c13.125702 0 24.612122 -4.2772217 27.996552 -10.425171l0 0c2.3215027 4.2170715 0.4675598 8.717682 -5.0169067 12.179047c-5.484497 3.4613953 -13.976318 5.4902344 -22.979645 5.4902344z" fill-rule="nonzero"></path><path fill="#000000" fill-opacity="0.0" d="m493.41995 259.90945l0 0c0 -6.4055176 -8.93869 -11.999817 -21.7323 -13.601196l0 3.622055l-7.2440796 -7.690155l7.2440796 -6.7980347l0 3.6220398l0 0c12.79361 1.6013794 21.7323 7.1956787 21.7323 13.601196l0 7.244095l0 0c0 7.758087 -12.973175 14.047241 -28.97638 14.047241l0 -7.24411l0 0c13.125702 0 24.612122 -4.2772217 27.996552 -10.425171" fill-rule="nonzero"></path><path stroke="#000000" stroke-width="1.0" stroke-linejoin="round" stroke-linecap="butt" d="m493.41995 259.90945l0 0c0 -6.4055176 -8.93869 -11.999817 -21.7323 -13.601196l0 3.622055l-7.2440796 -7.690155l7.2440796 -6.7980347l0 3.6220398l0 0c12.79361 1.6013794 21.7323 7.1956787 21.7323 13.601196l0 7.244095l0 0c0 7.758087 -12.973175 14.047241 -28.97638 14.047241l0 -7.24411l0 0c13.125702 0 24.612122 -4.2772217 27.996552 -10.425171" fill-rule="nonzero"></path><path fill="#000000" fill-opacity="0.0" d="m359.72964 268.75592l206.17325 0l0 53.35431l-206.17325 0z" fill-rule="nonzero"></path><path fill="#000000" d="m387.5376 282.50403l0 1.59375l-4.15625 0l0 11.578125l-1.828125 0l0 -11.578125l-4.15625 0l0 -1.59375l10.140625 0zm1.072052 8.25q0 -1.3125 0.375 -2.28125q0.390625 -0.984375 1.015625 -1.625q0.625 -0.65625 1.4375 -0.96875q0.8125 -0.328125 1.671875 -0.328125q2.0 0 3.0625 1.25q1.0625 1.234375 1.0625 3.78125q0 0.109375 0 0.296875q0 0.1875 -0.015625 0.328125l-6.765625 0q0.109375 1.546875 0.890625 2.34375q0.78125 0.796875 2.4375 0.796875q0.921875 0 1.5625 -0.15625q0.640625 -0.171875 0.953125 -0.328125l0.25 1.484375q-0.3125 0.171875 -1.125 0.359375q-0.8125 0.203125 -1.828125 0.203125q-1.296875 0 -2.234375 -0.390625q-0.9375 -0.390625 -1.546875 -1.078125q-0.609375 -0.6875 -0.90625 -1.625q-0.296875 -0.9375 -0.296875 -2.0625zm6.78125 -0.96875q0.015625 -1.203125 -0.609375 -1.96875q-0.609375 -0.765625 -1.6875 -0.765625q-0.609375 0 -1.078125 0.234375q-0.46875 0.234375 -0.796875 0.625q-0.3125 0.375 -0.5 0.875q-0.171875 0.484375 -0.234375 1.0l4.90625 0zm7.163208 6.078125q-1.640625 -0.03125 -2.328125 -0.6875q-0.671875 -0.671875 -0.671875 -2.078125l0 -11.859375l1.765625 -0.3125l0 11.875q0 0.4375 0.078125 0.734375q0.078125 0.28125 0.25 0.453125q0.171875 0.171875 0.453125 0.265625q0.28125 0.078125 0.703125 0.125l-0.25 1.484375zm1.5775452 -5.109375q0 -1.3125 0.375 -2.28125q0.390625 -0.984375 1.015625 -1.625q0.625 -0.65625 1.4375 -0.96875q0.8125 -0.328125 1.671875 -0.328125q2.0 0 3.0625 1.25q1.0625 1.234375 1.0625 3.78125q0 0.109375 0 0.296875q0 0.1875 -0.015625 0.328125l-6.765625 0q0.109375 1.546875 0.890625 2.34375q0.78125 0.796875 2.4375 0.796875q0.921875 0 1.5625 -0.15625q0.640625 -0.171875 0.953125 -0.328125l0.25 1.484375q-0.3125 0.171875 -1.125 0.359375q-0.8125 0.203125 -1.828125 0.203125q-1.296875 0 -2.234375 -0.390625q-0.9375 -0.390625 -1.546875 -1.078125q-0.609375 -0.6875 -0.90625 -1.625q-0.296875 -0.9375 -0.296875 -2.0625zm6.78125 -0.96875q0.015625 -1.203125 -0.609375 -1.96875q-0.609375 -0.765625 -1.6875 -0.765625q-0.609375 0 -1.078125 0.234375q-0.46875 0.234375 -0.796875 0.625q-0.3125 0.375 -0.5 0.875q-0.171875 0.484375 -0.234375 1.0l4.90625 0zm10.397583 4.90625q-0.234375 0.140625 -0.890625 0.390625q-0.65625 0.234375 -1.53125 0.234375q-0.890625 0 -1.6875 -0.28125q-0.78125 -0.296875 -1.375 -0.890625q-0.578125 -0.59375 -0.921875 -1.484375q-0.34375 -0.890625 -0.34375 -2.140625q0 -1.078125 0.3125 -1.96875q0.328125 -0.90625 0.9375 -1.5625q0.625 -0.65625 1.515625 -1.03125q0.90625 -0.375 2.015625 -0.375q1.234375 0 2.15625 0.1875q0.921875 0.171875 1.5625 0.328125l0 8.8125q0 2.28125 -1.1875 3.3125q-1.171875 1.03125 -3.5625 1.03125q-0.9375 0 -1.765625 -0.15625q-0.828125 -0.15625 -1.4375 -0.359375l0.328125 -1.546875q0.53125 0.21875 1.296875 0.375q0.765625 0.15625 1.609375 0.15625q1.578125 0 2.265625 -0.625q0.703125 -0.625 0.703125 -1.984375l0 -0.421875zm-0.03125 -7.34375q-0.265625 -0.0625 -0.71875 -0.125q-0.4375 -0.078125 -1.1875 -0.078125q-1.4375 0 -2.203125 0.9375q-0.765625 0.921875 -0.765625 2.46875q0 0.84375 0.21875 1.453125q0.21875 0.609375 0.578125 1.015625q0.375 0.390625 0.859375 0.59375q0.484375 0.1875 1.0 0.1875q0.703125 0 1.296875 -0.203125q0.59375 -0.203125 0.921875 -0.46875l0 -5.78125zm8.2677 -1.765625q0.21875 0 0.515625 0.03125q0.296875 0.03125 0.578125 0.078125q0.296875 0.046875 0.53125 0.09375q0.234375 0.046875 0.34375 0.09375l-0.296875 1.53125q-0.21875 -0.078125 -0.703125 -0.171875q-0.484375 -0.109375 -1.234375 -0.109375q-0.5 0 -0.984375 0.109375q-0.484375 0.09375 -0.640625 0.140625l0 8.296875l-1.765625 0l0 -9.46875q0.625 -0.21875 1.5625 -0.421875q0.9375 -0.203125 2.09375 -0.203125zm6.888794 8.828125q0.625 0 1.109375 -0.03125q0.484375 -0.03125 0.8125 -0.109375l0 -2.9375q-0.1875 -0.109375 -0.625 -0.171875q-0.421875 -0.0625 -1.03125 -0.0625q-0.390625 0 -0.84375 0.0625q-0.4375 0.046875 -0.8125 0.234375q-0.375 0.171875 -0.625 0.484375q-0.234375 0.3125 -0.234375 0.828125q0 0.953125 0.59375 1.328125q0.609375 0.375 1.65625 0.375zm-0.140625 -8.859375q1.0625 0 1.78125 0.28125q0.734375 0.265625 1.171875 0.78125q0.453125 0.5 0.640625 1.1875q0.203125 0.6875 0.203125 1.53125l0 6.171875q-0.234375 0.03125 -0.640625 0.109375q-0.40625 0.0625 -0.921875 0.109375q-0.515625 0.0625 -1.109375 0.109375q-0.59375 0.046875 -1.1875 0.046875q-0.84375 0 -1.546875 -0.171875q-0.703125 -0.171875 -1.21875 -0.53125q-0.5 -0.375 -0.796875 -0.984375q-0.28125 -0.609375 -0.28125 -1.453125q0 -0.828125 0.328125 -1.40625q0.34375 -0.59375 0.90625 -0.953125q0.578125 -0.359375 1.328125 -0.53125q0.765625 -0.171875 1.609375 -0.171875q0.265625 0 0.546875 0.03125q0.28125 0.015625 0.53125 0.0625q0.265625 0.046875 0.453125 0.09375q0.1875 0.03125 0.265625 0.0625l0 -0.5q0 -0.4375 -0.09375 -0.859375q-0.09375 -0.4375 -0.34375 -0.765625q-0.25 -0.328125 -0.671875 -0.53125q-0.421875 -0.203125 -1.109375 -0.203125q-0.875 0 -1.53125 0.125q-0.65625 0.125 -0.984375 0.25l-0.203125 -1.453125q0.34375 -0.15625 1.140625 -0.296875q0.796875 -0.140625 1.734375 -0.140625zm10.394836 -4.625q0.78125 0 1.34375 0.125q0.5625 0.109375 0.78125 0.203125l-0.3125 1.515625q-0.234375 -0.109375 -0.65625 -0.203125q-0.40625 -0.109375 -1.015625 -0.109375q-1.234375 0 -1.734375 0.671875q-0.5 0.671875 -0.5 1.8125l0 0.859375l3.8125 0l0 1.484375l-3.8125 0l0 8.390625l-1.765625 0l0 -10.765625q0 -1.90625 0.921875 -2.9375q0.9375 -1.046875 2.9375 -1.046875zm10.99527 13.484375q0.625 0 1.109375 -0.03125q0.484375 -0.03125 0.8125 -0.109375l0 -2.9375q-0.1875 -0.109375 -0.625 -0.171875q-0.421875 -0.0625 -1.03125 -0.0625q-0.390625 0 -0.84375 0.0625q-0.4375 0.046875 -0.8125 0.234375q-0.375 0.171875 -0.625 0.484375q-0.234375 0.3125 -0.234375 0.828125q0 0.953125 0.59375 1.328125q0.609375 0.375 1.65625 0.375zm-0.140625 -8.859375q1.0625 0 1.78125 0.28125q0.734375 0.265625 1.171875 0.78125q0.453125 0.5 0.640625 1.1875q0.203125 0.6875 0.203125 1.53125l0 6.171875q-0.234375 0.03125 -0.640625 0.109375q-0.40625 0.0625 -0.921875 0.109375q-0.515625 0.0625 -1.109375 0.109375q-0.59375 0.046875 -1.1875 0.046875q-0.84375 0 -1.546875 -0.171875q-0.703125 -0.171875 -1.21875 -0.53125q-0.5 -0.375 -0.796875 -0.984375q-0.28125 -0.609375 -0.28125 -1.453125q0 -0.828125 0.328125 -1.40625q0.34375 -0.59375 0.90625 -0.953125q0.578125 -0.359375 1.328125 -0.53125q0.765625 -0.171875 1.609375 -0.171875q0.265625 0 0.546875 0.03125q0.28125 0.015625 0.53125 0.0625q0.265625 0.046875 0.453125 0.09375q0.1875 0.03125 0.265625 0.0625l0 -0.5q0 -0.4375 -0.09375 -0.859375q-0.09375 -0.4375 -0.34375 -0.765625q-0.25 -0.328125 -0.671875 -0.53125q-0.421875 -0.203125 -1.109375 -0.203125q-0.875 0 -1.53125 0.125q-0.65625 0.125 -0.984375 0.25l-0.203125 -1.453125q0.34375 -0.15625 1.140625 -0.296875q0.796875 -0.140625 1.734375 -0.140625zm12.738586 9.140625q-0.234375 0.140625 -0.890625 0.390625q-0.65625 0.234375 -1.53125 0.234375q-0.890625 0 -1.6875 -0.28125q-0.78125 -0.296875 -1.375 -0.890625q-0.578125 -0.59375 -0.921875 -1.484375q-0.34375 -0.890625 -0.34375 -2.140625q0 -1.078125 0.3125 -1.96875q0.328125 -0.90625 0.9375 -1.5625q0.625 -0.65625 1.515625 -1.03125q0.90625 -0.375 2.015625 -0.375q1.234375 0 2.15625 0.1875q0.921875 0.171875 1.5625 0.328125l0 8.8125q0 2.28125 -1.1875 3.3125q-1.171875 1.03125 -3.5625 1.03125q-0.9375 0 -1.765625 -0.15625q-0.828125 -0.15625 -1.4375 -0.359375l0.328125 -1.546875q0.53125 0.21875 1.296875 0.375q0.765625 0.15625 1.609375 0.15625q1.578125 0 2.265625 -0.625q0.703125 -0.625 0.703125 -1.984375l0 -0.421875zm-0.03125 -7.34375q-0.265625 -0.0625 -0.71875 -0.125q-0.4375 -0.078125 -1.1875 -0.078125q-1.4375 0 -2.203125 0.9375q-0.765625 0.921875 -0.765625 2.46875q0 0.84375 0.21875 1.453125q0.21875 0.609375 0.578125 1.015625q0.375 0.390625 0.859375 0.59375q0.484375 0.1875 1.0 0.1875q0.703125 0 1.296875 -0.203125q0.59375 -0.203125 0.921875 -0.46875l0 -5.78125zm10.814545 7.34375q-0.234375 0.140625 -0.890625 0.390625q-0.65625 0.234375 -1.53125 0.234375q-0.890625 0 -1.6875 -0.28125q-0.78125 -0.296875 -1.375 -0.890625q-0.578125 -0.59375 -0.921875 -1.484375q-0.34375 -0.890625 -0.34375 -2.140625q0 -1.078125 0.3125 -1.96875q0.328125 -0.90625 0.9375 -1.5625q0.625 -0.65625 1.515625 -1.03125q0.90625 -0.375 2.015625 -0.375q1.234375 0 2.15625 0.1875q0.921875 0.171875 1.5625 0.328125l0 8.8125q0 2.28125 -1.1875 3.3125q-1.171875 1.03125 -3.5625 1.03125q-0.9375 0 -1.765625 -0.15625q-0.828125 -0.15625 -1.4375 -0.359375l0.328125 -1.546875q0.53125 0.21875 1.296875 0.375q0.765625 0.15625 1.609375 0.15625q1.578125 0 2.265625 -0.625q0.703125 -0.625 0.703125 -1.984375l0 -0.421875zm-0.03125 -7.34375q-0.265625 -0.0625 -0.71875 -0.125q-0.4375 -0.078125 -1.1875 -0.078125q-1.4375 0 -2.203125 0.9375q-0.765625 0.921875 -0.765625 2.46875q0 0.84375 0.21875 1.453125q0.21875 0.609375 0.578125 1.015625q0.375 0.390625 0.859375 0.59375q0.484375 0.1875 1.0 0.1875q0.703125 0 1.296875 -0.203125q0.59375 -0.203125 0.921875 -0.46875l0 -5.78125zm8.2677 -1.765625q0.21875 0 0.515625 0.03125q0.296875 0.03125 0.578125 0.078125q0.296875 0.046875 0.53125 0.09375q0.234375 0.046875 0.34375 0.09375l-0.296875 1.53125q-0.21875 -0.078125 -0.703125 -0.171875q-0.484375 -0.109375 -1.234375 -0.109375q-0.5 0 -0.984375 0.109375q-0.484375 0.09375 -0.640625 0.140625l0 8.296875l-1.765625 0l0 -9.46875q0.625 -0.21875 1.5625 -0.421875q0.9375 -0.203125 2.09375 -0.203125zm2.998169 5.171875q0 -1.3125 0.375 -2.28125q0.390625 -0.984375 1.015625 -1.625q0.625 -0.65625 1.4375 -0.96875q0.8125 -0.328125 1.671875 -0.328125q2.0 0 3.0625 1.25q1.0625 1.234375 1.0625 3.78125q0 0.109375 0 0.296875q0 0.1875 -0.015625 0.328125l-6.765625 0q0.109375 1.546875 0.890625 2.34375q0.78125 0.796875 2.4375 0.796875q0.921875 0 1.5625 -0.15625q0.640625 -0.171875 0.953125 -0.328125l0.25 1.484375q-0.3125 0.171875 -1.125 0.359375q-0.8125 0.203125 -1.828125 0.203125q-1.296875 0 -2.234375 -0.390625q-0.9375 -0.390625 -1.546875 -1.078125q-0.609375 -0.6875 -0.90625 -1.625q-0.296875 -0.9375 -0.296875 -2.0625zm6.78125 -0.96875q0.015625 -1.203125 -0.609375 -1.96875q-0.609375 -0.765625 -1.6875 -0.765625q-0.609375 0 -1.078125 0.234375q-0.46875 0.234375 -0.796875 0.625q-0.3125 0.375 -0.5 0.875q-0.171875 0.484375 -0.234375 1.0l4.90625 0zm10.397614 4.90625q-0.234375 0.140625 -0.890625 0.390625q-0.65625 0.234375 -1.53125 0.234375q-0.890625 0 -1.6875 -0.28125q-0.78125 -0.296875 -1.375 -0.890625q-0.578125 -0.59375 -0.921875 -1.484375q-0.34375 -0.890625 -0.34375 -2.140625q0 -1.078125 0.3125 -1.96875q0.328125 -0.90625 0.9375 -1.5625q0.625 -0.65625 1.515625 -1.03125q0.90625 -0.375 2.015625 -0.375q1.234375 0 2.15625 0.1875q0.921875 0.171875 1.5625 0.328125l0 8.8125q0 2.28125 -1.1875 3.3125q-1.171875 1.03125 -3.5625 1.03125q-0.9375 0 -1.765625 -0.15625q-0.828125 -0.15625 -1.4375 -0.359375l0.328125 -1.546875q0.53125 0.21875 1.296875 0.375q0.765625 0.15625 1.609375 0.15625q1.578125 0 2.265625 -0.625q0.703125 -0.625 0.703125 -1.984375l0 -0.421875zm-0.03125 -7.34375q-0.265625 -0.0625 -0.71875 -0.125q-0.4375 -0.078125 -1.1875 -0.078125q-1.4375 0 -2.203125 0.9375q-0.765625 0.921875 -0.765625 2.46875q0 0.84375 0.21875 1.453125q0.21875 0.609375 0.578125 1.015625q0.375 0.390625 0.859375 0.59375q0.484375 0.1875 1.0 0.1875q0.703125 0 1.296875 -0.203125q0.59375 -0.203125 0.921875 -0.46875l0 -5.78125zm7.9551697 7.0625q0.625 0 1.109375 -0.03125q0.484375 -0.03125 0.8125 -0.109375l0 -2.9375q-0.1875 -0.109375 -0.625 -0.171875q-0.421875 -0.0625 -1.03125 -0.0625q-0.390625 0 -0.84375 0.0625q-0.4375 0.046875 -0.8125 0.234375q-0.375 0.171875 -0.625 0.484375q-0.234375 0.3125 -0.234375 0.828125q0 0.953125 0.59375 1.328125q0.609375 0.375 1.65625 0.375zm-0.140625 -8.859375q1.0625 0 1.78125 0.28125q0.734375 0.265625 1.171875 0.78125q0.453125 0.5 0.640625 1.1875q0.203125 0.6875 0.203125 1.53125l0 6.171875q-0.234375 0.03125 -0.640625 0.109375q-0.40625 0.0625 -0.921875 0.109375q-0.515625 0.0625 -1.109375 0.109375q-0.59375 0.046875 -1.1875 0.046875q-0.84375 0 -1.546875 -0.171875q-0.703125 -0.171875 -1.21875 -0.53125q-0.5 -0.375 -0.796875 -0.984375q-0.28125 -0.609375 -0.28125 -1.453125q0 -0.828125 0.328125 -1.40625q0.34375 -0.59375 0.90625 -0.953125q0.578125 -0.359375 1.328125 -0.53125q0.765625 -0.171875 1.609375 -0.171875q0.265625 0 0.546875 0.03125q0.28125 0.015625 0.53125 0.0625q0.265625 0.046875 0.453125 0.09375q0.1875 0.03125 0.265625 0.0625l0 -0.5q0 -0.4375 -0.09375 -0.859375q-0.09375 -0.4375 -0.34375 -0.765625q-0.25 -0.328125 -0.671875 -0.53125q-0.421875 -0.203125 -1.109375 -0.203125q-0.875 0 -1.53125 0.125q-0.65625 0.125 -0.984375 0.25l-0.203125 -1.453125q0.34375 -0.15625 1.140625 -0.296875q0.796875 -0.140625 1.734375 -0.140625zm8.191711 0.25l3.75 0l0 1.484375l-3.75 0l0 4.546875q0 0.75 0.109375 1.234375q0.125 0.484375 0.34375 0.765625q0.234375 0.265625 0.578125 0.390625q0.34375 0.109375 0.796875 0.109375q0.796875 0 1.28125 -0.171875q0.484375 -0.1875 0.671875 -0.265625l0.34375 1.453125q-0.265625 0.140625 -0.9375 0.328125q-0.65625 0.203125 -1.515625 0.203125q-1.0 0 -1.65625 -0.25q-0.65625 -0.25 -1.0625 -0.765625q-0.390625 -0.515625 -0.5625 -1.265625q-0.15625 -0.75 -0.15625 -1.734375l0 -8.828125l1.765625 -0.296875l0 3.0625zm5.296692 4.953125q0 -1.3125 0.375 -2.28125q0.390625 -0.984375 1.015625 -1.625q0.625 -0.65625 1.4375 -0.96875q0.8125 -0.328125 1.671875 -0.328125q2.0 0 3.0625 1.25q1.0625 1.234375 1.0625 3.78125q0 0.109375 0 0.296875q0 0.1875 -0.015625 0.328125l-6.765625 0q0.109375 1.546875 0.890625 2.34375q0.78125 0.796875 2.4375 0.796875q0.921875 0 1.5625 -0.15625q0.640625 -0.171875 0.953125 -0.328125l0.25 1.484375q-0.3125 0.171875 -1.125 0.359375q-0.8125 0.203125 -1.828125 0.203125q-1.296875 0 -2.234375 -0.390625q-0.9375 -0.390625 -1.546875 -1.078125q-0.609375 -0.6875 -0.90625 -1.625q-0.296875 -0.9375 -0.296875 -2.0625zm6.78125 -0.96875q0.015625 -1.203125 -0.609375 -1.96875q-0.609375 -0.765625 -1.6875 -0.765625q-0.609375 0 -1.078125 0.234375q-0.46875 0.234375 -0.796875 0.625q-0.3125 0.375 -0.5 0.875q-0.171875 0.484375 -0.234375 1.0l4.90625 0zm6.491333 4.625q1.09375 0 1.609375 -0.28125q0.53125 -0.296875 0.53125 -0.921875q0 -0.640625 -0.515625 -1.015625q-0.515625 -0.390625 -1.6875 -0.859375q-0.578125 -0.234375 -1.109375 -0.46875q-0.515625 -0.234375 -0.890625 -0.5625q-0.375 -0.328125 -0.609375 -0.78125q-0.234375 -0.453125 -0.234375 -1.125q0 -1.3125 0.96875 -2.078125q0.96875 -0.765625 2.640625 -0.765625q0.421875 0 0.84375 0.046875q0.421875 0.046875 0.78125 0.109375q0.359375 0.0625 0.625 0.140625q0.28125 0.078125 0.4375 0.140625l-0.328125 1.515625q-0.28125 -0.15625 -0.890625 -0.3125q-0.609375 -0.15625 -1.46875 -0.15625q-0.734375 0 -1.296875 0.296875q-0.546875 0.28125 -0.546875 0.921875q0 0.3125 0.125 0.5625q0.125 0.25 0.375 0.453125q0.265625 0.1875 0.640625 0.359375q0.390625 0.171875 0.921875 0.359375q0.703125 0.265625 1.25 0.53125q0.546875 0.25 0.9375 0.59375q0.390625 0.34375 0.59375 0.828125q0.21875 0.484375 0.21875 1.1875q0 1.375 -1.015625 2.078125q-1.015625 0.703125 -2.90625 0.703125q-1.296875 0 -2.046875 -0.21875q-0.734375 -0.21875 -1.0 -0.34375l0.3125 -1.515625q0.3125 0.109375 0.96875 0.34375q0.671875 0.234375 1.765625 0.234375z" fill-rule="nonzero"></path><path fill="#000000" d="m388.69437 316.41028q0.625 0 1.109375 -0.03125q0.484375 -0.03125 0.8125 -0.109375l0 -2.9375q-0.1875 -0.109375 -0.625 -0.171875q-0.421875 -0.0625 -1.03125 -0.0625q-0.390625 0 -0.84375 0.0625q-0.4375 0.046875 -0.8125 0.234375q-0.375 0.171875 -0.625 0.484375q-0.234375 0.3125 -0.234375 0.828125q0 0.953125 0.59375 1.328125q0.609375 0.375 1.65625 0.375zm-0.140625 -8.859375q1.0625 0 1.78125 0.28125q0.734375 0.265625 1.171875 0.78125q0.453125 0.5 0.640625 1.1875q0.203125 0.6875 0.203125 1.53125l0 6.171875q-0.234375 0.03125 -0.640625 0.109375q-0.40625 0.0625 -0.921875 0.109375q-0.515625 0.0625 -1.109375 0.109375q-0.59375 0.046875 -1.1875 0.046875q-0.84375 0 -1.546875 -0.171875q-0.703125 -0.171875 -1.21875 -0.53125q-0.5 -0.375 -0.796875 -0.984375q-0.28125 -0.609375 -0.28125 -1.453125q0 -0.828125 0.328125 -1.40625q0.34375 -0.59375 0.90625 -0.953125q0.578125 -0.359375 1.328125 -0.53125q0.765625 -0.171875 1.609375 -0.171875q0.265625 0 0.546875 0.03125q0.28125 0.015625 0.53125 0.0625q0.265625 0.046875 0.453125 0.09375q0.1875 0.03125 0.265625 0.0625l0 -0.5q0 -0.4375 -0.09375 -0.859375q-0.09375 -0.4375 -0.34375 -0.765625q-0.25 -0.328125 -0.671875 -0.53125q-0.421875 -0.203125 -1.109375 -0.203125q-0.875 0 -1.53125 0.125q-0.65625 0.125 -0.984375 0.25l-0.203125 -1.453125q0.34375 -0.15625 1.140625 -0.296875q0.796875 -0.140625 1.734375 -0.140625zm6.5354614 0.53125q0.609375 -0.15625 1.609375 -0.328125q1.015625 -0.171875 2.328125 -0.171875q1.171875 0 1.953125 0.34375q0.78125 0.328125 1.25 0.921875q0.46875 0.59375 0.65625 1.4375q0.1875 0.828125 0.1875 1.84375l0 5.546875l-1.765625 0l0 -5.171875q0 -0.90625 -0.125 -1.546875q-0.125 -0.65625 -0.40625 -1.046875q-0.28125 -0.40625 -0.765625 -0.578125q-0.46875 -0.1875 -1.171875 -0.1875q-0.28125 0 -0.59375 0.015625q-0.296875 0.015625 -0.578125 0.046875q-0.28125 0.03125 -0.5 0.078125q-0.21875 0.03125 -0.3125 0.046875l0 8.34375l-1.765625 0l0 -9.59375zm17.099304 1.796875q-0.328125 -0.265625 -0.9375 -0.5q-0.609375 -0.25 -1.328125 -0.25q-0.75 0 -1.296875 0.28125q-0.546875 0.265625 -0.890625 0.75q-0.34375 0.484375 -0.5 1.15625q-0.140625 0.65625 -0.140625 1.421875q0 1.71875 0.84375 2.671875q0.859375 0.9375 2.296875 0.9375q0.71875 0 1.203125 -0.0625q0.484375 -0.078125 0.75 -0.140625l0 -6.265625zm0 -6.640625l1.765625 -0.3125l0 14.46875q-0.609375 0.171875 -1.5625 0.34375q-0.953125 0.171875 -2.1875 0.171875q-1.140625 0 -2.046875 -0.359375q-0.90625 -0.375 -1.5625 -1.03125q-0.640625 -0.671875 -1.0 -1.625q-0.34375 -0.96875 -0.34375 -2.15625q0 -1.140625 0.296875 -2.09375q0.296875 -0.953125 0.859375 -1.625q0.578125 -0.6875 1.390625 -1.0625q0.828125 -0.390625 1.90625 -0.390625q0.84375 0 1.5 0.234375q0.65625 0.21875 0.984375 0.4375l0 -5.0zm15.766907 9.515625q0 -1.734375 -0.859375 -2.65625q-0.84375 -0.9375 -2.265625 -0.9375q-0.796875 0 -1.25 0.0625q-0.453125 0.0625 -0.71875 0.125l0 6.234375q0.328125 0.265625 0.9375 0.515625q0.609375 0.25 1.328125 0.25q0.765625 0 1.296875 -0.265625q0.546875 -0.28125 0.890625 -0.765625q0.34375 -0.484375 0.484375 -1.140625q0.15625 -0.65625 0.15625 -1.421875zm1.84375 0q0 1.125 -0.296875 2.078125q-0.28125 0.9375 -0.859375 1.625q-0.5625 0.6875 -1.390625 1.078125q-0.828125 0.375 -1.890625 0.375q-0.859375 0 -1.515625 -0.234375q-0.65625 -0.234375 -0.984375 -0.4375l0 3.953125l-1.765625 0l0 -13.09375q0.625 -0.15625 1.5625 -0.328125q0.953125 -0.1875 2.1875 -0.1875q1.140625 0 2.046875 0.375q0.921875 0.359375 1.5625 1.03125q0.640625 0.65625 0.984375 1.609375q0.359375 0.953125 0.359375 2.15625zm5.6291504 3.65625q0.625 0 1.109375 -0.03125q0.484375 -0.03125 0.8125 -0.109375l0 -2.9375q-0.1875 -0.109375 -0.625 -0.171875q-0.421875 -0.0625 -1.03125 -0.0625q-0.390625 0 -0.84375 0.0625q-0.4375 0.046875 -0.8125 0.234375q-0.375 0.171875 -0.625 0.484375q-0.234375 0.3125 -0.234375 0.828125q0 0.953125 0.59375 1.328125q0.609375 0.375 1.65625 0.375zm-0.140625 -8.859375q1.0625 0 1.78125 0.28125q0.734375 0.265625 1.171875 0.78125q0.453125 0.5 0.640625 1.1875q0.203125 0.6875 0.203125 1.53125l0 6.171875q-0.234375 0.03125 -0.640625 0.109375q-0.40625 0.0625 -0.921875 0.109375q-0.515625 0.0625 -1.109375 0.109375q-0.59375 0.046875 -1.1875 0.046875q-0.84375 0 -1.546875 -0.171875q-0.703125 -0.171875 -1.21875 -0.53125q-0.5 -0.375 -0.796875 -0.984375q-0.28125 -0.609375 -0.28125 -1.453125q0 -0.828125 0.328125 -1.40625q0.34375 -0.59375 0.90625 -0.953125q0.578125 -0.359375 1.328125 -0.53125q0.765625 -0.171875 1.609375 -0.171875q0.265625 0 0.546875 0.03125q0.28125 0.015625 0.53125 0.0625q0.265625 0.046875 0.453125 0.09375q0.1875 0.03125 0.265625 0.0625l0 -0.5q0 -0.4375 -0.09375 -0.859375q-0.09375 -0.4375 -0.34375 -0.765625q-0.25 -0.328125 -0.671875 -0.53125q-0.421875 -0.203125 -1.109375 -0.203125q-0.875 0 -1.53125 0.125q-0.65625 0.125 -0.984375 0.25l-0.203125 -1.453125q0.34375 -0.15625 1.140625 -0.296875q0.796875 -0.140625 1.734375 -0.140625zm10.191711 0.03125q0.21875 0 0.515625 0.03125q0.296875 0.03125 0.578125 0.078125q0.296875 0.046875 0.53125 0.09375q0.234375 0.046875 0.34375 0.09375l-0.296875 1.53125q-0.21875 -0.078125 -0.703125 -0.171875q-0.484375 -0.109375 -1.234375 -0.109375q-0.5 0 -0.984375 0.109375q-0.484375 0.09375 -0.640625 0.140625l0 8.296875l-1.765625 0l0 -9.46875q0.625 -0.21875 1.5625 -0.421875q0.9375 -0.203125 2.09375 -0.203125zm5.841919 8.828125q1.09375 0 1.609375 -0.28125q0.53125 -0.296875 0.53125 -0.921875q0 -0.640625 -0.515625 -1.015625q-0.515625 -0.390625 -1.6875 -0.859375q-0.578125 -0.234375 -1.109375 -0.46875q-0.515625 -0.234375 -0.890625 -0.5625q-0.375 -0.328125 -0.609375 -0.78125q-0.234375 -0.453125 -0.234375 -1.125q0 -1.3125 0.96875 -2.078125q0.96875 -0.765625 2.640625 -0.765625q0.421875 0 0.84375 0.046875q0.421875 0.046875 0.78125 0.109375q0.359375 0.0625 0.625 0.140625q0.28125 0.078125 0.4375 0.140625l-0.328125 1.515625q-0.28125 -0.15625 -0.890625 -0.3125q-0.609375 -0.15625 -1.46875 -0.15625q-0.734375 0 -1.296875 0.296875q-0.546875 0.28125 -0.546875 0.921875q0 0.3125 0.125 0.5625q0.125 0.25 0.375 0.453125q0.265625 0.1875 0.640625 0.359375q0.390625 0.171875 0.921875 0.359375q0.703125 0.265625 1.25 0.53125q0.546875 0.25 0.9375 0.59375q0.390625 0.34375 0.59375 0.828125q0.21875 0.484375 0.21875 1.1875q0 1.375 -1.015625 2.078125q-1.015625 0.703125 -2.90625 0.703125q-1.296875 0 -2.046875 -0.21875q-0.734375 -0.21875 -1.0 -0.34375l0.3125 -1.515625q0.3125 0.109375 0.96875 0.34375q0.671875 0.234375 1.765625 0.234375zm5.476959 -3.65625q0 -1.3125 0.375 -2.28125q0.390625 -0.984375 1.015625 -1.625q0.625 -0.65625 1.4375 -0.96875q0.8125 -0.328125 1.671875 -0.328125q2.0 0 3.0625 1.25q1.0625 1.234375 1.0625 3.78125q0 0.109375 0 0.296875q0 0.1875 -0.015625 0.328125l-6.765625 0q0.109375 1.546875 0.890625 2.34375q0.78125 0.796875 2.4375 0.796875q0.921875 0 1.5625 -0.15625q0.640625 -0.171875 0.953125 -0.328125l0.25 1.484375q-0.3125 0.171875 -1.125 0.359375q-0.8125 0.203125 -1.828125 0.203125q-1.296875 0 -2.234375 -0.390625q-0.9375 -0.390625 -1.546875 -1.078125q-0.609375 -0.6875 -0.90625 -1.625q-0.296875 -0.9375 -0.296875 -2.0625zm6.78125 -0.96875q0.015625 -1.203125 -0.609375 -1.96875q-0.609375 -0.765625 -1.6875 -0.765625q-0.609375 0 -1.078125 0.234375q-0.46875 0.234375 -0.796875 0.625q-0.3125 0.375 -0.5 0.875q-0.171875 0.484375 -0.234375 1.0l4.90625 0zm6.491333 4.625q1.09375 0 1.609375 -0.28125q0.53125 -0.296875 0.53125 -0.921875q0 -0.640625 -0.515625 -1.015625q-0.515625 -0.390625 -1.6875 -0.859375q-0.578125 -0.234375 -1.109375 -0.46875q-0.515625 -0.234375 -0.890625 -0.5625q-0.375 -0.328125 -0.609375 -0.78125q-0.234375 -0.453125 -0.234375 -1.125q0 -1.3125 0.96875 -2.078125q0.96875 -0.765625 2.640625 -0.765625q0.421875 0 0.84375 0.046875q0.421875 0.046875 0.78125 0.109375q0.359375 0.0625 0.625 0.140625q0.28125 0.078125 0.4375 0.140625l-0.328125 1.515625q-0.28125 -0.15625 -0.890625 -0.3125q-0.609375 -0.15625 -1.46875 -0.15625q-0.734375 0 -1.296875 0.296875q-0.546875 0.28125 -0.546875 0.921875q0 0.3125 0.125 0.5625q0.125 0.25 0.375 0.453125q0.265625 0.1875 0.640625 0.359375q0.390625 0.171875 0.921875 0.359375q0.703125 0.265625 1.25 0.53125q0.546875 0.25 0.9375 0.59375q0.390625 0.34375 0.59375 0.828125q0.21875 0.484375 0.21875 1.1875q0 1.375 -1.015625 2.078125q-1.015625 0.703125 -2.90625 0.703125q-1.296875 0 -2.046875 -0.21875q-0.734375 -0.21875 -1.0 -0.34375l0.3125 -1.515625q0.3125 0.109375 0.96875 0.34375q0.671875 0.234375 1.765625 0.234375zm10.333435 -8.328125q0.609375 -0.15625 1.609375 -0.328125q1.0 -0.171875 2.3125 -0.171875q0.953125 0 1.59375 0.265625q0.640625 0.25 1.078125 0.75q0.140625 -0.09375 0.421875 -0.265625q0.28125 -0.171875 0.7030945 -0.328125q0.421875 -0.171875 0.921875 -0.296875q0.515625 -0.125 1.109375 -0.125q1.140625 0 1.859375 0.34375q0.71875 0.328125 1.125 0.9375q0.421875 0.609375 0.5625 1.453125q0.140625 0.828125 0.140625 1.8125l0 5.546875l-1.765625 0l0 -5.171875q0 -0.875 -0.09375 -1.5q-0.078125 -0.625 -0.3125 -1.03125q-0.234375 -0.421875 -0.65625 -0.625q-0.40625 -0.203125 -1.046875 -0.203125q-0.890625 0 -1.46875 0.234375q-0.578125 0.234375 -0.7968445 0.4375q0.15621948 0.484375 0.23434448 1.078125q0.078125 0.59375 0.078125 1.234375l0 5.546875l-1.7655945 0l0 -5.171875q0 -0.875 -0.109375 -1.5q-0.09375 -0.625 -0.328125 -1.03125q-0.234375 -0.421875 -0.640625 -0.625q-0.40625 -0.203125 -1.03125 -0.203125q-0.265625 0 -0.578125 0.015625q-0.296875 0.015625 -0.578125 0.046875q-0.28125 0.03125 -0.515625 0.078125q-0.21875 0.03125 -0.296875 0.046875l0 8.34375l-1.765625 0l0 -9.59375zm15.516144 4.671875q0 -1.3125 0.375 -2.28125q0.390625 -0.984375 1.015625 -1.625q0.625 -0.65625 1.4375 -0.96875q0.8125 -0.328125 1.671875 -0.328125q2.0 0 3.0625 1.25q1.0625 1.234375 1.0625 3.78125q0 0.109375 0 0.296875q0 0.1875 -0.015625 0.328125l-6.765625 0q0.109375 1.546875 0.890625 2.34375q0.78125 0.796875 2.4375 0.796875q0.921875 0 1.5625 -0.15625q0.640625 -0.171875 0.953125 -0.328125l0.25 1.484375q-0.3125 0.171875 -1.125 0.359375q-0.8125 0.203125 -1.828125 0.203125q-1.296875 0 -2.234375 -0.390625q-0.9375 -0.390625 -1.546875 -1.078125q-0.609375 -0.6875 -0.90625 -1.625q-0.296875 -0.9375 -0.296875 -2.0625zm6.78125 -0.96875q0.015625 -1.203125 -0.609375 -1.96875q-0.609375 -0.765625 -1.6875 -0.765625q-0.609375 0 -1.078125 0.234375q-0.46875 0.234375 -0.796875 0.625q-0.3125 0.375 -0.5 0.875q-0.171875 0.484375 -0.234375 1.0l4.90625 0zm5.850708 -3.984375l3.7500305 0l0 1.484375l-3.7500305 0l0 4.546875q0 0.75 0.109375 1.234375q0.125 0.484375 0.34375 0.765625q0.234375 0.265625 0.578125 0.390625q0.34375 0.109375 0.796875 0.109375q0.796875 0 1.28125 -0.171875q0.48440552 -0.1875 0.6719055 -0.265625l0.34375 1.453125q-0.265625 0.140625 -0.9375305 0.328125q-0.65625 0.203125 -1.515625 0.203125q-1.0 0 -1.65625 -0.25q-0.65625 -0.25 -1.0625 -0.765625q-0.390625 -0.515625 -0.5625 -1.265625q-0.15625 -0.75 -0.15625 -1.734375l0 -8.828125l1.765625 -0.296875l0 3.0625zm9.499847 -0.21875q0.21875 0 0.515625 0.03125q0.296875 0.03125 0.578125 0.078125q0.296875 0.046875 0.53125 0.09375q0.234375 0.046875 0.34375 0.09375l-0.296875 1.53125q-0.21875 -0.078125 -0.703125 -0.171875q-0.484375 -0.109375 -1.234375 -0.109375q-0.5 0 -0.984375 0.109375q-0.484375 0.09375 -0.640625 0.140625l0 8.296875l-1.765625 0l0 -9.46875q0.625 -0.21875 1.5625 -0.421875q0.9375 -0.203125 2.09375 -0.203125zm5.310669 10.09375l-1.765625 0l0 -9.875l1.765625 0l0 9.875zm-0.890625 -11.671875q-0.46875 0 -0.8125 -0.3125q-0.328125 -0.3125 -0.328125 -0.84375q0 -0.53125 0.328125 -0.84375q0.34375 -0.3125 0.8125 -0.3125q0.484375 0 0.8125 0.3125q0.328125 0.3125 0.328125 0.84375q0 0.53125 -0.328125 0.84375q-0.328125 0.3125 -0.8125 0.3125zm8.141907 11.90625q-1.203125 0 -2.109375 -0.375q-0.890625 -0.390625 -1.515625 -1.078125q-0.609375 -0.6875 -0.921875 -1.625q-0.296875 -0.9375 -0.296875 -2.078125q0 -1.140625 0.328125 -2.09375q0.34375 -0.953125 0.9375 -1.640625q0.609375 -0.6875 1.484375 -1.078125q0.890625 -0.390625 1.984375 -0.390625q0.65625 0 1.3125 0.109375q0.671875 0.109375 1.28125 0.359375l-0.390625 1.5q-0.40625 -0.1875 -0.9375 -0.296875q-0.515625 -0.109375 -1.09375 -0.109375q-1.484375 0 -2.28125 0.9375q-0.78125 0.921875 -0.78125 2.703125q0 0.796875 0.171875 1.46875q0.1875 0.65625 0.578125 1.140625q0.390625 0.46875 1.0 0.734375q0.609375 0.25 1.484375 0.25q0.703125 0 1.265625 -0.125q0.578125 -0.140625 0.890625 -0.296875l0.25 1.484375q-0.15625 0.09375 -0.4375 0.1875q-0.28125 0.078125 -0.640625 0.140625q-0.359375 0.078125 -0.78125 0.125q-0.40625 0.046875 -0.78125 0.046875zm6.675171 -1.5q1.09375 0 1.609375 -0.28125q0.53125 -0.296875 0.53125 -0.921875q0 -0.640625 -0.515625 -1.015625q-0.515625 -0.390625 -1.6875 -0.859375q-0.578125 -0.234375 -1.109375 -0.46875q-0.515625 -0.234375 -0.890625 -0.5625q-0.375 -0.328125 -0.609375 -0.78125q-0.234375 -0.453125 -0.234375 -1.125q0 -1.3125 0.96875 -2.078125q0.96875 -0.765625 2.640625 -0.765625q0.421875 0 0.84375 0.046875q0.421875 0.046875 0.78125 0.109375q0.359375 0.0625 0.625 0.140625q0.28125 0.078125 0.4375 0.140625l-0.328125 1.515625q-0.28125 -0.15625 -0.890625 -0.3125q-0.609375 -0.15625 -1.46875 -0.15625q-0.734375 0 -1.296875 0.296875q-0.546875 0.28125 -0.546875 0.921875q0 0.3125 0.125 0.5625q0.125 0.25 0.375 0.453125q0.265625 0.1875 0.640625 0.359375q0.390625 0.171875 0.921875 0.359375q0.703125 0.265625 1.25 0.53125q0.546875 0.25 0.9375 0.59375q0.390625 0.34375 0.59375 0.828125q0.21875 0.484375 0.21875 1.1875q0 1.375 -1.015625 2.078125q-1.015625 0.703125 -2.90625 0.703125q-1.296875 0 -2.046875 -0.21875q-0.734375 -0.21875 -1.0 -0.34375l0.3125 -1.515625q0.3125 0.109375 0.96875 0.34375q0.671875 0.234375 1.765625 0.234375z" fill-rule="nonzero"></path></g></svg>

